<?xml version="1.0" standalone="no"?>
<!DOCTYPE svg PUBLIC "-//W3C//DTD SVG 1.1//EN" "http://www.w3.org/Graphics/SVG/1.1/DTD/svg11.dtd" >
<svg xmlns="http://www.w3.org/2000/svg" xmlns:xlink="http://www.w3.org/1999/xlink" version="1.1">
<metadata>
Created by FontForge 20170731 at Fri Jan  1 02:30:17 1904
 By Aleksey,,,
Shareware 
</metadata>
<defs>
<font id="MarkerFeltThin" horiz-adv-x="1051" >
  <font-face 
    font-family="Marker Felt"
    font-weight="100"
    font-stretch="normal"
    units-per-em="2048"
    panose-1="2 11 2 0 0 0 0 0 0 0"
    ascent="1638"
    descent="-410"
    x-height="1042"
    cap-height="1489"
    bbox="-96 -403 1733 1966"
    underline-thickness="50"
    underline-position="-175"
    unicode-range="U+0020-00FA"
  />
<missing-glyph horiz-adv-x="1536" 
d="M256 0v1280h1024v-1280h-1024zM1248 32v1216h-960v-1216h960z" />
    <glyph glyph-name=".notdef" horiz-adv-x="1536" 
d="M256 0v1280h1024v-1280h-1024zM1248 32v1216h-960v-1216h960z" />
    <glyph glyph-name=".null" horiz-adv-x="0" 
 />
    <glyph glyph-name="nonmarkingreturn" horiz-adv-x="0" 
 />
    <glyph glyph-name="space" unicode=" " horiz-adv-x="569" 
 />
    <glyph glyph-name="exclam" unicode="!" horiz-adv-x="436" 
d="M348 506l-6 -31l-20 -24q-11 -6 -35 -13q-22 -6 -49 -6q-46 0 -82 21q-20 11 -31 18q-12 9 -25 25l-14 26l-2 39l2 37l2 23l-6 127l-6 135v49v43v37v30v27v25v69q-2 23 -2 72v18q0 165 26 195q17 22 93 22q40 0 55 -2q11 -2 49 -20q35 -13 47 -45q2 -8 2 -27
q0 -14 -2 -20l-10 -33l-8 -29l-4 -30v-611q0 -19 4 -41l10 -37l8 -36zM360 12l-2 -16l-10 -16q-3 -10 -24 -13l-50 -6q-34 0 -55 6q-29 7 -47 19q-25 9 -45 39l-12 36l-2 43v39q-1 15 -9 50l-8 30q-4 12 -4 23q0 18 8 33q17 28 33 36l39 9q43 0 64 -7q40 -6 61 -24
q12 -7 22 -31q4 -11 5.5 -17t3.5 -12l8 -32l6 -43v-23v-37q0 -16 2 -22q0 -4 6 -21z" />
    <glyph glyph-name="quotedbl" unicode="&#x22;" horiz-adv-x="563" 
d="M514 1325l-2 -12l-2 -13l-2 -8v-10l-10 -166v-22q0 -11 4 -23l4 -16v-17v-18q-3 -11 -8 -16q-9 -19 -27 -23l-37 -8h-12q-9 3 -29 6q-17 3 -45 24.5t-39 57.5l-2 6v10v10l4 11l4 12l4 18l3 21v145l-23 88q12 22 41 35t59 13h9q34 0 61 -17q27 -12 39 -43l4 -16l2 -17v-12
zM248 1356l-2 -10l-2 -9v-12l-13 -164v-24q4 -20 5 -21l4 -18l2 -17l-2 -16l-9 -16q-5 -13 -24 -23l-37 -8h-14q-10 3 -13 6q-34 3 -59 27q-29 20 -39 53l-2 8v8v13l2 10l4 10l4 18l2 21v145l-22 90q13 19 43 35q30 10 59 13h6q31 0 60 -15q26 -14 43 -47l4 -16v-15v-8v-18z
" />
    <glyph glyph-name="numbersign" unicode="#" horiz-adv-x="885" 
d="M852 1092q0 -30 -10 -58q-11 -23 -31 -49q-8 -10 -57 -20q-23 -5 -92 -19v-162l32 11q26 8 56 24q31 17 38 17q26 0 41 -21q15 -19 15 -49q1 -5 1.5 -12.5t1 -15.5t1.5 -13q0 -14 -2 -16q-6 -7 -12 -13q-29 -37 -62 -37q-12 0 -16 3l-86 -17l4 -61q16 -27 31 -64
q14 -36 14 -63q0 -16 -8 -29q-10 -17 -15 -22q-14 -15 -49 -15q-29 0 -57 23q-17 17 -22.5 24.5t-12.5 14.5t-10 28q-4 30 -4 58v41q0 26 2 38l-158 -30l2 -25q4 -31 16 -55q9 -18 9 -37q0 -8 -2 -12q-11 -23 -27 -31q-23 -10 -55 -10q-29 0 -41 4q-4 3 -9 7.5t-12 12.5
q-26 27 -26 56q0 11 6 26v33l-60 -33q-15 -6 -30 -6q-29 0 -47 25q-19 20 -29 57q-8 28 -8 57q0 56 43 62h4q11 0 26 -6q18 -10 39 -13l58 11l-9 145q-28 -4 -45 -10q-13 -4 -26 -7.5t-23 -7.5q-24 -6 -45 -6q-28 0 -37 19q-1 1 -3.5 10t-6.5 23q-8 24 -8 45q0 56 51 71h10
h13q3 -1 10 -2.5t14.5 -2.5t14.5 -3l79 10v58q0 5 -10 37q-11 29 -16 53q-2 6 -2 20q0 32 26 49q35 23 76 23t76 -10q29 -10 29 -47q0 -13 -7 -21q-21 -27 -24 -43v-96l149 31q0 6 -4 34q-4 30 -4 66q0 54 17 63q16 11 59 11q40 0 66 -15q24 -15 24 -49q0 -20 -2 -22
q-4 -9 -7.5 -18t-6.5 -17v-15q30 26 71 48q25 12 45 12q13 0 19 -2q29 -10 35 -17q12 -9 12 -36zM537 760q0 51 -2 90q-5 65 -5 70l-153 -35l2 -152z" />
    <glyph glyph-name="dollar" unicode="$" horiz-adv-x="616" 
d="M406 1376l-7 -26l-18 -21l-25 -10h-28h-4q-35 0 -50 8q-15 3 -32 16l-4 5l-5 22l-2 19l5 28q4 14 18 23l12 6h21l18 -2l21 -2l36 -12q18 -6 29 -17q7 -4 10 -18zM571 911q0 -38 -8 -67q-4 -16 -6 -23.5t-5.5 -19.5t-4.5 -17q-6 -14 -9.5 -24t-9.5 -21q-28 -63 -63 -116
q-44 -64 -82 -99q-25 -18 -35 -22q-19 -8 -39 -10q-52 0 -106 34q-50 38 -80 80l-23 43l-8 37v4q3 15 19 27l39 8l10 -2h16q20 -3 31 -10q17 -2 29 -11l10 -10q8 -3 8 -8l2 -4l12 -12l13 -6l18 8q10 3 23 24l14 25l16 29l15 34l6 33l-2 8l-6 8l-11 3l-35 -9q-12 -4 -22 -6
q-6 -1 -23 -8l-41 -12l-43 -8l-12 -3h-12q-32 0 -68 19q-36 16 -57 72l-2 8q0 37 20 84l56 114l61 91q17 25 39 49q10 10 29 26q30 28 47 35q27 12 49 14l12 -2l13 -2q19 -5 57 -28q36 -22 51 -39l31 -39l12 -25v-2q-6 -52 -31 -73q-28 -23 -61 -23h-12q-6 2 -8.5 2.5
t-4.5 1.5q-11 0 -18 10l-14 19l-2 4l-13 16q-2 6 -20 10q-4 -4 -6 -4q-15 -8 -19 -12l-37 -37l-14 -20l-12 -19l-31 -57q-2 -6 -4.5 -12t-5.5 -15q0 -4 -2 -6l2 -4l12 -2l43 8l66 21l30 8l33 8l47 8l41 4q37 0 57 -14q26 -8 35 -41l4 -16v-17zM430 393q0 -26 -18 -53
q-19 -21 -47 -33l-9 -2l-20 2l-21 8l-26 11l-19 14l-12 10l-4 8v7l2 47q3 18 20 32q7 7 19 7l29 4h10l12 -2q28 -2 53 -15q23 -9 29 -24l2 -11v-10z" />
    <glyph glyph-name="percent" unicode="%" horiz-adv-x="1294" 
d="M1251 1389l-2 -31l-10 -33q-10 -23 -18 -31l-27 -24l-4 -4q-8 -2 -27 -19l-16 -20l-619 -905l-20 -39l-16 -41l-5 -11l-2 -6l-39 -80q-16 -35 -55 -47l-10 -4h-10l-11 -2h-12q-45 0 -82 37q-37 35 -37 96q0 29 11 56l30 28l4 4l7 4l12 11l14 12l586 887l-395 -121l6 -41
l2 -39q0 -128 -80 -229q-83 -103 -209 -103q-99 0 -139 43q-41 44 -41 113v37q5 15 5.5 17.5t2.5 8.5l23 70q14 39 32 72q26 43 45 67q43 60 105 109l8 6l12 8q25 16 31 17q20 7 27 8l45 4l12 2h21l22 6l528 156q18 0 31 10q11 4 27 16l12 4l10 9l27 12l29 6l10 -2l12 -2
q73 -18 109 -43q28 -25 28 -59zM1174 270q0 -69 -9 -114q-10 -49 -37 -84q-51 -70 -120 -101l-37 -14l-37 -4l-39 2q-26 0 -41 6q-72 18 -139 72q-59 53 -74 135l-2 14v15q0 103 84 184q84 78 190 78h17q58 -6 119 -43q25 -14 49 -33q11 -9 21 -19.5t20 -21.5q19 -26 22 -39
zM319 1012v14q0 14 -4 18q-3 10 -12 13h-4q-8 -2 -14 -8l-15 -21l-18 -31l-12 -32l-11 -37l-4 -29l2 -12l6 -8l3 -2h4l8 2l8 4q14 7 23 20q10 14 16 31l4 10l4 10l4 17l6 14l4 16zM987 258l-4 12l-12 9l-4 2h-9q-9 -1 -24 -9q-19 -11 -21 -18l-8 -6h-4l-18 -27l-17 -28
l-6 -19v-16v-11l6 -10l11 -4l8 -2l12 4q12 3 18 12l19 21l6 6l6 8l6 8l6 9l9 12l6 12l10 19z" />
    <glyph glyph-name="ampersand" unicode="&#x26;" horiz-adv-x="1081" 
d="M1090 567l-3 -6l-6 -20q-3 -13 -12 -19q-10 -10 -27 -16h-38l-13 -2h-8h-8l-14 -4l-15 -4l-8 -2l-8 -2l-27 -9l-24 -12l-23 -10l-16 -10l-56 -93l-63 -104q-73 -108 -176 -207q-53 -48 -105.5 -71t-107.5 -23q-61 0 -119 31q-55 28 -113 102q-12 15 -20 27q-2 7 -17 30
l-18 62l-2 20v21l4 57l19 64q18 45 26 61q24 44 35 59q20 35 27 45q32 51 53 78l18 25l19 27l-15 -3h-16h-12l-27 7l-31 6l-20 6l-21 12l-36 31q-18 16 -21 47l-2 8q0 51 41 142q41 89 98 180l70 102l74 96q18 23 53 58q13 13 57 51q55 43 94 43q67 0 111 -41
q40 -42 78 -104l22 -41l17 -48l10 -53l6 -47q0 -15 -4 -33l-6 -20q-6 -16 -33 -27l-41 -10h-10l-41 6l-33 17l-24 28l-15 33l-6 18q0 11 -4 19l-14 33q-4 11 -23 14q-16 0 -51 -35l-66 -84l-22 -29l-19 -32l-61 -101q-25 -54 -27 -67l2 -6l17 -11l20 -2q22 0 52 13l61 34
l6 2l12 7q11 6 35 22q18 11 29 15q13 6 31 12q15 3 24 6h6q42 0 74 -25q33 -20 33 -69q0 -17 -6 -41q-8 -27 -17 -41q-14 -24 -22 -33l-6 -4q-11 -10 -21 -12l-24 -13q-17 -5 -33 -18l-21 -23q-46 -30 -102 -102q-25 -32 -45 -66q-17 -24 -41 -71q-32 -59 -51 -119
q-3 -10 -6.5 -26t-6.5 -25q-6 -28 -6 -45l2 -23l6 -16q14 -19 19 -23q12 -4 27 -4q20 0 40 10q9 5 16.5 8.5t12.5 6.5q1 1 9 6.5t18 13.5q20 16 35 29q6 6 13.5 15t18.5 20q18 17 54 76l14 24l10 29l-6 -2h-8l-8 -2h-9l-32 6l-31 14l-6 6l-21 25l-12 31l-4 12v12l2 10l4 13
q2 9 51 37q10 5 20 9t29 13q54 19 60 21l61 22l70 21q56 18 162 45l108 18h6l5 -2q38 -7 57 -33q21 -27 29 -69v-7v-8z" />
    <glyph glyph-name="quotesingle" unicode="'" horiz-adv-x="340" 
d="M270 1356l-2 -10l-2 -9v-12l-12 -164v-24l4 -21l4 -18l2 -17l-2 -16l-8 -16q-5 -14 -25 -23l-36 -8h-15q-9 3 -12 6q-33 3 -60 27q-29 20 -38 53l-2 8v8v13l2 10l4 10l4 18l2 21v145l-23 90q14 19 43 35q33 10 60 13h6q32 0 59 -15q28 -14 43 -47l4 -16v-15v-8v-18z" />
    <glyph glyph-name="parenleft" unicode="(" horiz-adv-x="586" 
d="M504 1382l-2 -14l-2 -12q-3 -14 -8 -19l-11 -12l-12 -10q-2 -6 -8 -12q-6 -4 -25 -31q-4 -10 -7.5 -21.5t-6.5 -19.5q-5 -11 -7.5 -19t-8.5 -22q-11 -25 -17 -55l-27 -138l-16 -137l-6 -92l6 -133l19 -174q2 -29 10 -82q5 -20 8.5 -32t5.5 -21q10 -50 37 -115
q3 -25 12 -37l21 -29l6 -8q18 -25 20 -35l9 -32v-9l-2 -8q-11 -39 -48 -61q-38 -19 -84 -19h-12q-23 0 -43 4q-14 7 -29 13q-37 13 -57 41l-24 45l-7 49v8v8l-2 6l-14 60l-12 55q-15 71 -25 152q-11 78 -18 143l-8 223l10 135q8 66 12 101q7 55 21 106q2 23 12 66
q3 16 16 76q4 17 8.5 32.5t8.5 26.5q7 19 14 36.5t8 20.5l2 15l2 16l10 41q9 21 21 33l6 6l6 8l25 12l33 2l26 -2l25 -6q52 -10 88 -41q41 -35 41 -82z" />
    <glyph glyph-name="parenright" unicode=")" horiz-adv-x="586" 
d="M483 709l-10 -140q-4 -32 -12 -94q-7 -57 -21 -108q-3 -31 -12 -70q-7 -31 -18 -68q-16 -64 -37 -120l-4 -15v-14l-11 -45q-7 -18 -20 -31l-6 -6l-6 -6l-25 -12l-33 -3l-26 3l-25 6q-49 9 -86 41q-41 30 -41 79v13l2 16q3 12 8 17l11 12l10 10l10 12q1 1 23 29
q10 17 16 45q21 40 33 94l26 135l17 138l6 94l-6 131q0 57 -2 74q-7 48 -13 84q-13 83 -14 100q-5 18 -8.5 30.5t-5.5 20.5q-11 64 -37 117q-3 23 -12 35q-17 28 -21 30l-6 7l-2 6q-14 17 -19 30l-8 33v8l2 9q9 42 45 63q46 21 86 21h13q32 0 73 -17q34 -18 54 -41
q18 -21 24 -49l8 -49v-8l3 -8v-11l14 -55l12 -55q33 -177 33 -180q8 -61 8 -117q0 -43 4 -109z" />
    <glyph glyph-name="asterisk" unicode="*" horiz-adv-x="731" 
d="M649 973q-28 -23 -67 -23q-31 0 -54 17q-19 12 -41 32l-12 13l-12 16v-76l2 -14l4 -10l4 -10l2 -15l-2 -10q-11 -25 -29 -35q-21 -12 -43 -12h-12l-12 4l-25 10l-22 23q-5 8 -8 35l4 67l2 25l2 30v7l-25 -17l-29 -18l-24 -13l-23 -12l-6 -4l-6 -6l-4 -4l-16 -10l-27 -7
h-12h-13l-12 2q-42 12 -53 23q-20 13 -23 37l2 8v8q6 13 19 19l24 8l13 4l8 4l10 4l139 78l-98 47l-14 4h-8l-21 4l-14 11l-4 10l-2 16l4 17q3 20 32 45q33 24 62 32l14 2l15 2l10 -2l12 -2q10 -2 16 -8l9 -10l12 -25q12 -12 33 -26l4 90v10l-2 8l-2 10v9v8l4 8l6 4l31 12
l39 3h10q18 0 37 -7q16 -12 24 -22l2 -10v-17v-28q0 -19 -4 -35l-2 -11l-2 -22l-2 -23l51 27l11 6l10 8l4 4l14 11q6 6 19 6h8h8q26 -8 41 -21q21 -17 29 -43v-8v-18l-6 -13l-15 -10l-16 -6l-6 -2l-9 -2l-6 -2l-6 -2l-76 -53l99 -54l8 -4l10 -4l17 -8l12 -10l8 -15l2 -14
q-4 -20 -10 -31q-7 -10 -25 -24z" />
    <glyph glyph-name="plus" unicode="+" horiz-adv-x="819" 
d="M780 840q4 -18 4 -33q0 -62 -55 -68q-6 -2 -16 -2q-9 0 -25 4q-6 2 -18 2q-13 0 -19 -2l-143 -22l18 -141q3 -14 13 -35q6 -19 6 -31v-4q-3 -35 -29 -55q-24 -20 -59 -23q-34 -6 -49 -6q-50 0 -80 31q-11 11 -17 26q-8 23 -10 31l-25 172l-106 -43h-39q-33 3 -51 25
q-20 20 -29 49q-10 30 -10 65q0 32 10 60q9 21 37 30q4 2 14 2q7 0 27 -4q21 -8 35 -8l94 14l-16 154l-3.5 10.5t-7.5 16.5q-8 13 -8 26v4q6 30 33 45q21 11 68 21q35 8 67 8q41 0 70 -12q26 -12 31 -39v-8q0 -10 -7 -31q-5 -11 -7 -19.5t-3 -11.5l12 -131l101 13
q30 10 37 12q33 10 49 10q40 0 67 -29q26 -25 39 -73z" />
    <glyph glyph-name="comma" unicode="," horiz-adv-x="354" 
d="M303 55l-4 -24l-12 -21l-13 -16l-16 -21l-18 -20l-17 -23l-86 -118q-36 -53 -69 -56l-23 4l-22 11q-20 8 -50 41q-19 22 -24 53v6v6l2 4q2 2 2 4q11 20 20 27l45 43l39 47q21 22 27 51l10 19q0 10 4 22v6l2 15l2 18l13 17q6 6 14 6l21 2l24 -2q20 0 29 -6q37 -11 61 -29
q26 -15 35 -39l2 -14z" />
    <glyph glyph-name="hyphen" unicode="-" horiz-adv-x="729" 
d="M662 688q2 -8 2 -22q0 -17 -11 -39q-15 -28 -47 -37q-6 -2 -18 -2q-17 0 -27 2l-36 4h1q-60 -5 -168 -16q-122 -17 -153 -31q-18 -11 -19 -12q-17 -13 -41 -13q-28 0 -51 23t-26 55v12q0 21 12 50q14 31 45 49q13 8 33 8q40 -4 49 -4q65 0 100 8q165 35 203 37q15 3 18 6
q22 12 31 12q83 0 103 -90z" />
    <glyph glyph-name="period" unicode="." horiz-adv-x="387" 
d="M328 197q0 -23 -13 -56q-9 -26 -14 -49q-2 -6 -2 -26q0 -32 -6 -52q-6 -18 -31 -30q-25 -15 -55 -15q-11 0 -47 4q-25 3 -58 27q-30 21 -30 68q0 18 8 34q4 11 16 39v17v26v25v18q6 27 31 43q22 15 57 15q9 0 45 -4q24 -3 64 -25q35 -22 35 -59z" />
    <glyph glyph-name="slash" unicode="/" horiz-adv-x="961" 
d="M938 1358q-3 -18 -8 -23l-19 -22l-12 -13q-3 -1 -10 -8l-23 -22q-6 -3 -18 -25l-567 -1075l-15 -33l-12 -37l-6 -20l-6 -19q-8 -33 -23.5 -59t-30.5 -29h-6h-8l-35 4l-39 15q-37 15 -67 47q-33 26 -33 70q0 21 8 34l23 31l10 8l12 17l13 20l608 1141l8 16l6 19l2 10v10
l15 43q10 25 28 33l21 8l24 2l21 -2l20 -4q44 -14 82 -49q37 -37 37 -88z" />
    <glyph glyph-name="zero" unicode="0" 
d="M956 682q0 -147 -19.5 -263t-62.5 -218q-109 -264 -339 -264q-214 0 -322 243q-86 195 -86 479q0 279 82 515q114 323 328 323q10 -2 26 -2q198 -18 305 -289q88 -219 88 -524zM688 702q0 257 -14 342q-31 197 -129 197q-93 0 -129 -268q-11 -110 -19 -271
q2 -136 15 -258q33 -262 123 -274h4q48 0 98 176q51 176 51 356z" />
    <glyph glyph-name="one" unicode="1" 
d="M745 84l-4 -35l-12 -41q-17 -30 -49 -39q-25 -14 -76 -14h-26l-27 4q-65 12 -129 49q-57 39 -57 92l2 9v8l14 33l22 26l5 4l6 8l18 23q6 11 8 31l-32 819q0 31 -25 47q-21 18 -47 31l-6 2l-4 4l-56 37q-28 25 -28 65q23 53 53 99q27 39 61 73q30 36 70 58q35 20 68 26h10
h8q66 0 125 -47q55 -46 55 -119q0 -15 -8 -28l-12 -21v-2l-15 -22q-6 -10 -6 -27l29 -971q0 -32 10 -55l23 -37l2 -6l20 -39q3 -6 6 -18q2 -6 2.5 -13t1.5 -14z" />
    <glyph glyph-name="two" unicode="2" 
d="M989 145q0 -45 -39 -77q-37 -32 -92 -45l-10 -3h-12h-9h-8l-28 7l-29 8l-33 10l-24 4h-7l-6 -2l-16 2h-19h-36q-14 0 -43 -8l-86 -25l-41 -14l-39 -12l-107 -39q-46 -18 -84 -23h-8l-39 9q-21 3 -45 18q-36 19 -72 53q-34 32 -34 70q0 27 14 41l37 26l8 5l29 18l22 27
q19 25 88 153l146 289l10 29q7 17 16 26l150 326q63 144 63 174v2h-2l-6 2h-8q-7 0 -23 -4q-17 -7 -30 -21l-19 -14l-16 -12l-29 -29l-16 -20q-19 -19 -25 -29l-8 -33l-2 -8q-3 -22 -12 -37q-14 -19 -45 -37l-15 -4h-16l-31 2l-33 11q-44 16 -77 53q-35 37 -46 84v2v2
q0 14 23 45q9 15 25 31q18 18 28 26l35 29l37 29l18 12l19 12l39 39l43 43q6 6 14 12.5t18 16.5q31 27 66 51q50 36 109 57l32 11l33 4q43 0 82 -11q32 -8 70 -39q68 -49 77 -139v-12q0 -47 -32 -133q-38 -100 -107 -236q-113 -219 -330 -721q33 0 60 9l86 18l10 2l100 21
l46 8l16 2l18 6l21 6l28 2q33 0 62 -14q31 -16 68 -64q19 -26 22 -41z" />
    <glyph glyph-name="three" unicode="3" 
d="M973 659q0 -49 -45 -139q-4 -10 -21 -41t-26 -49q-38 -61 -62 -94l-78 -105l-77 -94q-55 -64 -121 -114q-64 -48 -109 -60h-4h-6q-23 0 -57 17q-36 16 -70 45q-32 23 -47 38l-43 41l-62 72q-26 44 -28 53l-2 9v8q0 33 35 63q32 31 69 31h8h9q29 0 59 -16q34 -17 49 -27
l12 -12l15 -6q3 -7 24 -19l33 -8q12 8 14 10q17 13 35 31l86 102l23 31l12 16q10 15 14 17l62 104q28 54 28 78l-4 12l-6 9l-18 8l-17 2l-24 -4l-23 -13l-16 -12l-19 -10l-18 -17l-18 -10l-29 -14l-21 -17l-6 -6l-6 -6l-28 -20l-33 -6l-27 4q-17 3 -31 12q-46 21 -82 70
q-36 45 -36 104q0 38 32 55l68 25l41 12l35 19l45 41l51 51l39 47l37 51q33 46 63 105q24 42 27 79l-2 15l-6 10l-4 2q-11 0 -52 -29l-75 -63l-19 -17l-18 -18l-23 -25l-22 -24l-23 -23l-16 -26l-4 -6l-27 -41q-8 -14 -41 -27l-10 -4l-10 -2l-11 -2h-10q-57 0 -106 45
q-56 46 -70 102v2q0 21 57 78q70 66 150 127l55 45l62 43q16 11 36 23t35 22q18 10 82 45q71 39 119 39q99 0 149 -69q52 -64 52 -152q0 -108 -27 -180q-5 -16 -27 -62q-14 -31 -38 -65l-43 -55l-54 -60q85 -22 146 -59q57 -31 86 -117l2 -12z" />
    <glyph glyph-name="four" unicode="4" 
d="M1049 639q0 -57 -48 -94q-31 -24 -63 -27q-8 0 -12 2q-49 8 -97 8h-49q-16 -2 -43 -2l-2 -293q0 -30 15 -67q32 -90 32 -121q0 -39 -47 -74q-51 -34 -86 -34q-60 0 -129 57q-80 65 -80 135q0 7 4 29q2 12 13 26q34 39 37 54q3 17 6 38q2 17 2 56t-2 69q-2 31 -2 72
q-26 -9 -80 -18q-148 -22 -156 -25q-14 -5 -53 -33q-18 -12 -35 -12q-53 0 -104 64q-54 66 -54 124q0 33 21 56q35 22 67 47q23 48 211 377q151 267 174 311q2 22 4 42.5t5 49.5q3 32 45 57q13 9 35 9q70 0 156.5 -72.5t86.5 -153.5q0 -24 -35 -96q-36 -70 -43 -113
q-5 -34 -8 -122q-4 -104 -4 -105v-63q0 -39 2 -56q23 2 86 25q50 16 72 16h10q64 -9 107 -49q41 -41 41 -94zM508 983l-166 -319l156 32z" />
    <glyph glyph-name="five" unicode="5" 
d="M1006 1325q0 98 -35 127q-30 33 -82 33l-41 -4l-39 -6h-6l-19 -5l-16 -2l-39 -6l-88 -14l-18 -2l-19 -2l-41 -8q-12 -4 -20 -4h-19l-47 -5h-51l-16 -2h-17h-8h-8l-125 -8q-61 -6 -70 -24l-6 -19l-2 -20l2 -45l8 -49l2 -15l11 -51l4 -41v-217q-3 -22 -15 -35l-26 -27h-2
l-29 -28q-10 -17 -10 -33v-8q3 -28 16 -41l33 -27l6 -6l8 -4l15 -12l14 -13l10 -12l12 -14l5 -8l6 -9l28 -32q15 -15 39 -21h4l7 -2q26 3 59 19l68 43l10 8l14 12l76 53q32 25 57 25h8l7 -2l6 -12q4 -4 4 -19q0 -44 -21 -96q-6 -22 -10 -35t-6 -20q-5 -19 -29 -78l-33 -70
q-7 -12 -14 -31q-4 -10 -16 -30q-29 -53 -58 -90q-26 -39 -45 -39q-31 3 -51 12l-41 31l-4 4l-43 33q-21 18 -49 18l-16 2h-15q-45 0 -82 -16q-36 -19 -45 -60v-2l-2 -4q3 -28 39 -76q39 -51 82 -94l49 -45l53 -43q40 -32 103 -68q52 -31 82 -34q29 0 94 77q59 71 127 179
l74 133l69 145q42 97 72 201q25 92 25 160q0 94 -68 153q-71 56 -154 56q-56 0 -110 -13q-33 -7 -47 -14q-1 -1 -5 -2t-14 -6l-26 -13q-10 -6 -13.5 -9t-7.5 -5l-20 -12v47l2 59v60l-2 53v35v14l299 39h2h4l31 -6l28 -12l25 -11l26 -6l9 2h6q47 9 86 43q35 37 35 78z" />
    <glyph glyph-name="six" unicode="6" 
d="M944 1139q0 -11 -4 -31q-12 -31 -55 -53l-101 -19q-44 0 -79 13q-37 9 -64 36q-14 15 -14 50q0 32 2 45l-2 28q-2 9 -6 21q-10 22 -31 39q-16 16 -37 16q-14 0 -27 -14l-26 -39q-15 -27 -25 -51q-19 -51 -29 -78q-2 -10 -7 -30t-9 -42q-10 -54 -18 -98l-2 -27l-2 -26
q25 40 65 61q44 23 90 23q159 0 252 -132q47 -60 78 -141q25 -77 25 -158q0 -29 -11 -108q-9 -65 -41 -154q-36 -115 -110 -215q-66 -96 -160 -96q-212 0 -338 178q-127 180 -127 484q0 382 113 632q112 252 286 252q114 0 189 -63q79 -66 129 -164q39 -26 67 -57
q29 -35 29 -82zM664 539v30q0 62 -2 72q-4 13 -17 49q-14 51 -59 64l-29 -6q-26 -18 -51.5 -66t-44.5 -113l-12 -43l-7 -39l-8 -51l-2 -65q0 -58 12 -111q8 -28 31 -51q2 -2 14 -10h9q42 0 75 53q15 21 33 53q16 38 27 70l10 35l16 79z" />
    <glyph glyph-name="seven" unicode="7" 
d="M991 1319l-2 -10v-13l-2 -12q-6 -25 -22 -41l-41 -29l-6 -6l-37 -24q-15 -11 -25 -35l-399 -895l-15 -45l-4 -47l-2 -31v-31q0 -58 -8 -94q-9 -39 -63 -61l-31 -8l-33 -3h-12q-80 0 -148 62q-59 53 -59 121q0 38 18 59q16 17 41 35l4 6l31 27q15 15 23 35l424 948
l-222 -76l-26 -14l-23 -13l-12 -8l-12 -6l-29 -12l-33 -6h-10l-8 2l-10 2l-9 2q-33 15 -65 57q-26 37 -39 90l-2 19v16q0 19 4 39l20 33q21 20 33 22l39 6l19 -2h22q9 0 23 -4h22h10l11 2h10l10 4l70 13l69 18q31 4 62 16l57 19l150 49l49 14q23 9 39 9h2q71 -20 110 -72
q37 -52 37 -113v-14z" />
    <glyph glyph-name="eight" unicode="8" 
d="M891 385q0 -29 -2 -35q-1 -5 -15 -39q-4 -12 -7 -18t-6.5 -13.5t-6.5 -13.5q-5 -12 -29 -47q-34 -43 -39 -49q-30 -34 -49 -53q-24 -26 -51 -47q-19 -18 -55 -43q-41 -31 -92 -56q-49 -22 -86 -22q-30 0 -62 14l-72 39q-49 38 -92 86q-52 57 -71 107l-9 34l-4 31
q0 44 23 111q18 52 57 116l37 60l39 61l37 56l37 53q-108 59 -166 149q-26 41 -35 97q-10 60 -10 118q0 34 14 72l14 47v0q1 0 17 29q44 84 125 162q83 80 180 100l47 8l45 4q138 0 201 -94q65 -95 65 -217q0 -60 -22 -131q-9 -27 -25 -57q-7 -17 -30 -60q-6 -8 -21 -33
q-20 -28 -33 -45l-57 -84l45 -47l45 -47q53 -62 84 -129q35 -75 35 -174zM631 1212q-3 14 -4 15q-2 5 -9 10l-8 4l-12 2l-23 -6l-22 -10q-28 -17 -43 -35l-6 -6l-6 -6q-9 -9 -21 -29l-4 -6l-2 -2l-25 -62l-8 -53q0 -30 15 -55q13 -19 45 -43q26 52 49 92q9 17 24 44t21 38
q10 22 19 41.5t10 21.5q10 35 10 45zM610 438q0 30 -12 56q-6 21 -31 30l-35 -45l-36 -49l-15 -22l-16 -21l-51 -84q-23 -41 -23 -67l2 -17l13 -10l8 -6l14 -2q14 0 43 16q21 13 53 45l21 23l22 26l25 39l12 45l4 21z" />
    <glyph glyph-name="nine" unicode="9" 
d="M926 831q0 -157 -24.5 -296t-72.5 -267q-118 -313 -319 -313q-100 0 -176 61q-51 42 -131 160q-7 12 -37 35q-27 17 -33 33q-24 52 -24 82q0 35 26 55q31 23 94 37q28 6 56 6q48 0 86 -18q36 -21 47 -56q4 -20 4 -22q-6 -28 -6 -41v-11q0 -12 2 -16q8 -30 26 -55
q18 -24 41 -27q45 0 78 86q6 18 35 90q21 65 33 142q3 30 12 79q-24 -24 -45 -38q-59 -41 -106 -41h-21q-119 0 -225 125q-117 138 -117 294q0 185 68 342q88 205 254 238q36 4 45 4q172 0 301 -201.5t129 -466.5zM602 948q6 25 8 45q2 21 2 66q0 76 -12 129q-15 54 -35 59
l-28 4q-56 0 -97 -90q-29 -70 -45 -170q-12 -55 -12 -123q0 -77 20 -120q19 -46 64 -46q61 0 100 119q24 82 35 127z" />
    <glyph glyph-name="colon" unicode=":" horiz-adv-x="420" 
d="M352 889l-6 -19l-4 -8l-6 -22l-4 -19l-4 -20v-21l-4 -37q0 -17 -17 -34l-28 -15q-18 -4 -43 -4h-15h-12q-45 6 -74 27q-35 19 -35 55v21l9 18l2 6l6 14l4 19l4 16v17v10v12v39q0 16 18 37l31 14q15 6 39 6l14 -2h15q43 -7 71 -26q33 -14 39 -49l2 -11zM297 170l-6 -18
l-4 -9l-6 -22l-5 -19l-4 -20v-21l-4 -36q0 -17 -16 -33l-29 -15q-16 -4 -43 -4h-14h-12q-44 6 -74 27q-35 15 -35 53v21l8 18l2 6l6 15l5 18l4 16v17v10v12v41q0 16 18 37l31 15q15 6 39 6l14 -2h14q42 -6 72 -27q33 -14 39 -49l2 -10z" />
    <glyph glyph-name="semicolon" unicode=";" horiz-adv-x="354" 
d="M307 889l-4 -19l-4 -8l-8 -22l-4 -19l-2 -20v-21l-4 -37q0 -10 -17 -34l-31 -15q-12 -4 -40 -4h-17h-12q-42 6 -74 27q-35 19 -35 55l2 21l6 18l3 6l6 14l6 19l4 16v17v10v12v39q0 19 18 37q7 7 27 14q18 6 43 6l12 -2h15q46 -7 71 -26q33 -14 39 -49l2 -11zM279 41
l-7 -25l-12 -16l-16 -16l-19 -21l-102 -127q-39 -57 -78 -57l-27 4l-30 6q-6 2 -29 16q-25 18 -29 21q-23 17 -26 47v4l2 4q2 6 6 10q6 9 18 21l45 43l39 47q11 12 27 51l8 19q0 10 4 22v6l2 15l4 18l11 17l12 6h16q17 0 33 -4l43 -15q30 -10 62 -33q29 -15 38 -38l2 -5
l3 -10v-10z" />
    <glyph glyph-name="less" unicode="&#x3c;" horiz-adv-x="983" 
d="M801 379q0 -36 -19 -96l-14 -25l-14 -20l-4 -5q-28 -23 -39 -28q-22 -10 -41 -10q-29 0 -43 2q-24 0 -45 8l-50 31l-221 186q-36 -4 -41 -4h-10q-27 10 -80 43l-4 4l-4 4l-12 12l-8 11q-19 32 -25 98q0 54 27 104l6 13l8 8q11 11 27 14q18 0 28 2l6 2l27 2l23 15l253 241
q5 3 5 15l6 20l4 27q12 20 14 22q7 7 21 10q2 2 16 2q10 0 16 3q31 -6 56 -17l47 -37l8 -6l6 -6q38 -47 53 -96q11 -30 11 -58q0 -14 -4 -26l-11 -21l-8 -12l-18 -10l-19 -2l-18 -2l-15 -9l-186 -161q51 -58 68 -74q77 -74 127 -74q4 0 20 4h8q11 0 21 -10q6 -7 9.5 -12
t4.5 -6l4 -9l10 -8q13 -14 13 -59z" />
    <glyph glyph-name="equal" unicode="=" horiz-adv-x="774" 
d="M674 907q0 -17 -6 -37q-9 -18 -19 -28l-10 -6l-6 -2q-3 -1 -6.5 -2t-5.5 -3l-25 2q-8 2 -11.5 3t-6.5 2l-21 2l-18 2h-11l-8 -2l-198 -45l-25 -11q-14 0 -23 -8l-14 -6l-14 -4l-17 -6l-18 -2l-18 2l-19 6q-34 15 -53 47q-15 22 -17 33q-1 5 -2.5 10t-2.5 10l-3 15v10
l6 29q3 14 17 30l22 4l41 2h11l10 2h12l23 2l24 5l211 57l10 4l13 2l39 10l38 6q11 0 23 -4q15 -3 20 -8q16 -6 37 -43l19 -57l2 -15v-8zM651 616q0 -18 -6 -36q-9 -20 -18 -29l-9 -8h-8l-10 -4h-8l-19 2l-18 2l-20 4l-19 2h-10l-8 -2l-199 -45l-25 -10l-22 -9l-14 -6
l-15 -6l-16 -4l-19 -2l-18 2l-18 6q-31 13 -52 49q-20 33 -26 66v10l6 31q9 21 15.5 28t23.5 7l41 2h10l10 2h13l22 2l25 2l211 57l10 2l12 4l39 10l39 5q12 0 22 -5q16 0 29 -8q12 -7 29 -39l18 -57l2 -14v-11z" />
    <glyph glyph-name="greater" unicode="&#x3e;" horiz-adv-x="983" 
d="M848 590q-6 -66 -25 -98l-8 -11l-10 -8l-6 -8l-4 -4q-53 -33 -80 -43h-13h-16q-6 2 -11 2.5t-11 1.5l-222 -186l-49 -31q-30 -12 -61 -12q-9 0 -33.5 4t-34.5 10q-17 9 -39 26l-4 5l-14 20l-14 25q-19 60 -19 96q0 44 12 59l11 8l4 9q12 14 22 24q6 6 13 6q6 0 8 -2
q12 -4 20 -4q47 0 117 64q28 25 78 84l-187 161l-14 9l-18 2l-19 2l-18 10l-8 12l-11 21q-4 12 -4 30q0 29 15 66q12 39 49 84l6 6l8 6l47 37q24 10 55 17q23 0 33 -5q15 -4 21 -10q2 -2 14 -22l4 -27l6 -20q0 -11 4 -15l254 -241l23 -15l26 -2l7 -2q12 -2 28 -2
q19 -3 27 -14l8 -8l4 -13q29 -49 29 -104z" />
    <glyph glyph-name="question" unicode="?" horiz-adv-x="764" 
d="M731 1235q0 -88 -51 -186q-36 -71 -84 -154q-72 -125 -98 -168q-25 -50 -29 -59q-11 -20 -27 -62l-12 -51l4 -68q2 -2 2 -32v-19q0 -11 -4 -33q-3 -16 -37 -22q-15 -6 -28 -6q-16 0 -41 14q-43 14 -84 55q-41 38 -47 88v13q0 60 45 157q48 109 94 191q5 9 24 47
q69 124 86 166q45 99 45 154q0 33 -14 43l-12 6q-22 0 -49 -27l-66 -68q-13 -13 -18 -18.5t-13 -13.5q-2 -2 -32 -47l-7 -7l-6 -6q-15 -15 -24 -37l-12 -22l-15 -27q-3 -6 -22 -22l-25 -10l-41 -3q-17 0 -43 11q-30 13 -45 28q-35 33 -35 76q0 38 25 66q23 23 65 41
q22 29 33 41q14 16 51 55q43 46 103 96q82 70 182 70q31 0 43 -2q21 -3 37 -13q33 -9 86 -47q48 -38 74 -88q11 -21 16 -47q6 -27 6 -53zM518 31q4 -12 4 -21q0 -18 -8 -33q-17 -31 -33 -38l-39 -9l-20 2l-19 5q-39 13 -67 38q-24 22 -27 25q-9 9 -22 31l-8 22l-7 43v23v37
q0 16 -2 22q-3 15 -6 21l-10 43l2 16l10 16q3 10 25 13l49 6q27 0 51 -4q19 -4 21 -6q7 -1 30 -15q25 -9 45 -39l13 -36l2 -43v-39q0 -27 8 -50z" />
    <glyph glyph-name="at" unicode="@" horiz-adv-x="1128" 
d="M1085 635q0 -72 -18 -137q-19 -58 -61 -121q-76 -115 -209 -115q-32 0 -52 8q-22 9 -53 33q-42 37 -57 115l-19 -35l-18 -33q-28 -51 -74 -104q-42 -49 -100 -49q-78 0 -119 53q-35 62 -35 133l6 68q3 12 7 36q3 16 12 37q27 106 94 195q64 88 146 123l10 4l16 2l8 -2
q27 -3 52 -21q21 -18 24 -43l-2 -6l-2 -8l-12 -12l-21 -6l-20 -5q-10 -10 -13 -14q-41 -19 -71 -74q-33 -46 -55 -110q-11 -20 -21 -51q-9 -29 -12 -43q-10 -52 -10 -72l2 -23l10 -6l14 4l14 15l21 22l16 21l23 35q12 17 20 43l4 12l5 16l6 15l2 20l2 23v6v8v6v2l-2 12v9v4
l-4 10v12v4v2q6 28 24 37q20 8 49 8q26 0 45 -8q21 -3 45 -16q20 -11 33 -53q1 -5 3.5 -13t4.5 -20q2 -11 3.5 -20t3.5 -23l2 -17l2 -14v-8l10 -70q6 -25 33 -28q55 0 102 77q43 77 43 172v13q0 44 -16 94q-18 42 -54 88q-65 80 -231 80q-142 0 -254 -121
q-109 -118 -154 -272l-14 -68l-4 -63q0 -113 64 -189q61 -78 208 -78q23 0 43 4l39 11q19 7 33 16l35 18q13 4 18 9l17 12l4 4l20 14l27 9l10 -2l12 -3q24 -6 48 -28q20 -21 20 -51v-9l-2 -8q-12 -45 -43 -61q-41 -18 -94 -23l-105 -30q-53 -13 -112 -13q-136 0 -256 99
q-119 97 -119 364q0 82 19 154t57.5 138t97.5 126q176 176 389 176q221 0 324 -127q55 -61 88 -131q28 -70 28 -143v-15v-16z" />
    <glyph glyph-name="A" unicode="A" horiz-adv-x="1141" 
d="M1102 463q0 -43 -10 -78q-11 -32 -39 -35q-9 -1 -19 -3t-16 -3l-12 -2q-26 -4 -33 -4q-23 0 -29 2q29 -112 98 -205q10 -10 17 -14q13 -10 33 -74q2 -6 2 -16q0 -24 -21 -45q-29 -28 -57 -31q-38 -4 -49 -4q-48 0 -86 16q-37 15 -54 56q-6 18 -6 40q0 29 -2 31
q-13 28 -26.5 54.5t-24.5 50.5q-24 45 -49 112l-373 -63q-13 -30 -27 -78q-15 -46 -18 -78v-43q0 -12 -4 -24q-35 -68 -117 -68q-21 0 -51 10q-44 21 -63 51q-19 25 -19 54q0 10 2 16q9 49 25 62q10 8 18 16q32 138 55.5 241.5t38.5 172.5q53 222 103 385q18 59 40.5 121
t48.5 126t48 113q2 4 2 16v15q-2 14 -2 26q0 27 2 33q3 16 21 45q15 29 40 37t78 8h23q70 0 115 -26q45 -28 45 -93q0 -24 -15 -59q-14 -28 -14 -49v-4q15 -175 43 -320q26 -143 104 -401q19 0 43 8q64 21 78 21h12q12 -3 12 -4h-1q43 -14 67 -41q23 -32 23 -74zM641 516
q-5 20 -18.5 76t-26.5 110q-34 151 -53 259q-58 -134 -90 -232q-50 -142 -66 -260z" />
    <glyph glyph-name="B" unicode="B" horiz-adv-x="907" 
d="M887 621q0 -109 -86 -218q-22 -28 -47.5 -57t-38.5 -45q-54 -58 -103 -108l-43 -46l-43 -43l-10 -22l-10 -19l-4 -8l-2 -6q-25 -48 -51 -86q-33 -45 -89 -45h-6h-8q-50 6 -108 41q-57 33 -101 90q-20 32 -22 39l-6 33q0 26 10 39q4 8 12 16q12 12 16 17q-2 18 -4 30
t-4 23q-10 82 -10 149l-14 314l-13 340l-2 196l-6 6l-20 49l-13 56v14l5 41q3 15 22 37q12 12 25 14q12 4 34 4h27l27 -6l32 -12l8 -4t23 -12q17 -11 45 -39l74 24l80 23l72 12l67 6q50 0 98 -16q45 -17 70 -66q8 -14 14 -28q4 -20 7 -27l8 -57q0 -45 -17 -105q-2 -6 -7 -20
t-13 -31q-18 -41 -27 -57q-22 -47 -63 -103l-82 -92l61 -18l58 -19q59 -12 94 -35q38 -16 59 -59l10 -27l9 -26l4 -25zM528 1200l-2 10l-2 9l-14 8l-16 2q-20 0 -43 -10l-52 -23l-18 -10l-19 -12l-20 -15l-18 -10v-45q0 -32 4 -62v-8v-8l2 -61l2 -47l8 8l10 8l49 51l45 55
q7 7 35 47q10 14 27 43q19 44 22 70zM625 594l-4 14l-5 13q-5 13 -24 16l-35 6l-47 -6q-17 -2 -49 -14l-58 -27q-10 -6 -26 -14l-23 -21v-37q0 -40 4 -82v-12v-14v-80l2 -53l54 41l65 61l35 35l33 37q31 34 55 73q23 41 23 64z" />
    <glyph glyph-name="C" unicode="C" horiz-adv-x="836" 
d="M825 479q-3 -30 -18 -51q-2 -3 -5.5 -7.5t-8.5 -12.5q-5 -7 -19 -21l-37 -86q-23 -50 -24 -53q-6 -14 -29 -53q-55 -100 -119 -170q-63 -76 -141 -76q-192 0 -274 155q-84 154 -105 349l-6 79l-2 80l2 121l10 127q16 126 43.5 232.5t65.5 193.5q81 190 219 205l24 2h23
q168 0 235 -137q35 -72 60 -148q33 -121 45 -180l2 -14l6 -13l8 -20l6 -20l7 -25l2 -23q0 -15 -17 -47q-21 -21 -59 -43l-19 -4l-22 -2l-31 2q-16 0 -31 8q-56 24 -73 33q-27 20 -49 51l-7 13v14l2 25l13 22l4 12l6 13l-2 22l-2 23q-6 58 -31 121q-23 62 -53 69h-4h-4
q-37 0 -66 -127q-9 -39 -24 -135q-16 -91 -19 -133l-8 -107l-6 -100l-2 -72q0 -37 4 -73q0 -66 8 -113q12 -74 23 -109q21 -98 69 -108h2q15 0 33 17.5t31 39.5l45 92q19 48 37 111l4 14l-4 19v16q0 58 39 84q37 27 96 27l29 -2l28 -6q45 -7 70 -37q17 -19 20 -54v-10z" />
    <glyph glyph-name="D" unicode="D" horiz-adv-x="895" 
d="M856 1198q0 -274 -104 -580q-47 -135 -101.5 -246.5t-128.5 -221.5q-64 -97 -119 -152t-104 -72q-4 -2 -16 -2q-23 0 -47 8q-44 10 -78 41q-21 18 -39 50q-25 38 -25 71q0 22 10 35q9 10 9 21q0 89 -7 243q-14 356 -14 391q-8 257 -8 445q0 5 -21 43q-12 24 -12 43
q0 5 6 26q2 18 23 39q19 17 44.5 31t63.5 14q43 0 78 -26q136 52 176 63q95 29 142 29q28 0 37 -2q96 -21 170 -119q65 -86 65 -172zM610 1221v12q0 19 -12 33q-15 12 -35 12h-10q-49 -8 -111 -45q-70 -51 -112 -86v-229q-1 -57 -1 -114q-1 -57 -1 -114q0 -155 2 -211
q4 -97 10 -137q25 69 98 260q60 153 99 285q53 187 73 334z" />
    <glyph glyph-name="E" unicode="E" horiz-adv-x="784" 
d="M776 1339q0 -25 -18 -45q-19 -18 -53 -30q-19 -7 -46 -7q-26 0 -45 3q-18 2 -32 2q-21 0 -99 -33q-96 -42 -133 -66q0 -110 -2 -180q-1 -24 -1 -62q-1 -38 -1 -51v-28v-58q0 -13 4 -59q19 6 31 8q19 3 22 6q34 37 82 37q42 0 113 -45q74 -47 74 -90q0 -35 -4 -55
q-5 -14 -39 -39q-33 -27 -68 -27q-18 0 -37 2q-18 2 -51 2q-20 0 -55 -16q-18 -9 -40.5 -21t-27.5 -14q0 -80 2 -121q0 -64 8 -92q58 15 93 27q29 8 39 16q12 15 18.5 22.5t7.5 8.5q3 3 19 6q20 4 34 4q31 0 66 -18q35 -26 57 -52q41 -52 41 -98q0 -35 -14 -55
q-14 -24 -45 -31q-25 -8 -68 -8q-53 0 -55 -2t-96 -45q-85 -42 -97 -49l-8 -8t-10 -9q-31 -30 -55 -35h-8q-28 0 -82 35q-74 50 -115 144q-2 2 -2 8q0 9 12 29q8 11 8 24q0 158 -2 205q-8 253 -8 328q0 96 4 374q2 140 2 246q0 6 -4 14q-10 22 -10 25q0 21 16 37q2 1 11 6
t28 16q36 17 72 17q18 0 45 -10q16 -10 49 -25q73 24 103 31q52 16 118 41q15 5 56 22q30 10 53 10q33 0 55 -16q12 -7 41 -41q47 -53 47 -115z" />
    <glyph glyph-name="F" unicode="F" horiz-adv-x="774" 
d="M737 1352q0 -63 -30 -84q-32 -21 -82 -27l-37 -2h-31h-10h-8h-15l-10 -2l-31 -12l-28 -17l-9 -2l-6 -4l-53 -22l-39 -17l-8 -67l-2 -72l-2 -131v-51q0 -15 4 -51l2 -50l2 -16l21 14l24 17l14 8l15 10l4 8l18 19l17 8l14 10l8 2l13 2l22 -4q12 0 27 -8q32 -12 47 -23
q16 -12 41 -43q41 -41 47 -92v-6q0 -10 -4 -22q0 -15 -8 -23q-18 -29 -46 -37l-65 -6h-4l-57 -6q-27 -3 -52 -25q-20 -5 -39 -22l-30 -27l-4 -6l-13 -14l-6 -8l-6 -72v-84v-84q0 -38 4 -68v-22l2 -17l6 -24l2 -21q0 -21 -16 -51q-13 -24 -47 -41l-29 -10l-31 -2h-18l-18 2
q-48 12 -88 43q-36 33 -50 82l-2 8v8l6 21l13 12l6 4l8 6l2 4l-4 342q0 78 -2 142q-2 63 -2 139l2 258l6 307l-2 17v16q0 38 25 66q22 28 92 28h20l25 -2q36 -3 43 -10q10 -2 22 -14l9 -7l6 -10l26 8l25 9l33 12l35 12l12 6q8 3 12 9l2 2l27 14l53 8l31 -6l37 -10
q12 -5 19 -9.5t9 -5.5q29 -17 47 -39q37 -36 37 -75z" />
    <glyph glyph-name="G" unicode="G" horiz-adv-x="930" 
d="M926 598l-6 -29l-13 -28l-8 -11l-6 -6q-18 -15 -39 -18h-47h-12h-13h-30l-33 -2l-4 -17v-16q-17 -107 -35 -170q-12 -43 -57 -158q-63 -144 -144 -184l-14 -4h-16q-36 0 -80 22q-29 14 -45 27q-11 7 -45 37q-92 78 -168 233q-36 81 -56 168q-18 87 -18 193v53q0 12 4 66
q0 61 12 123q16 128 41 223q30 105 74 205q91 198 246 198q58 0 104 -28t78 -82q67 -115 102 -250l13 -70l12 -69l12 -21l10 -20l5 -23l2 -18q0 -33 -21 -62q-13 -25 -49 -37l-16 -4h-19h-29l-24 6l-70 29q-32 15 -49 35l-4 4l-8 14l-2 6l-4 9v10l2 22l8 27l2 10l2 13l-4 43
l-6 51q-6 44 -19 82q-12 36 -28 39q-12 0 -27 -33l-29 -86l-32 -129l-23 -142l-12 -98l-4 -92q0 -32 4 -66q0 -24 2 -34q0 -13 8 -37q0 -54 21 -111l26 -92l23 -51q9 -15 20 -19q25 0 43 60q5 15 19 67q9 43 12 64v12l4 17l-33 14l-33 24q-35 28 -41 33q-10 10 -24 27
q-31 35 -31 71l2 17l4 14l9 13l14 14q15 15 63 24l113 11l63 4l74 6l15 6l12 6l16 8l17 7l24 10l29 4l12 -2l14 -2q28 -6 50 -19q16 -9 39 -34q34 -35 47 -87l2 -10v-10z" />
    <glyph glyph-name="H" unicode="H" horiz-adv-x="907" 
d="M897 674q-6 -26 -27 -37l-32 -14l-4 -2l-15 -5l-12 -6l-2 -75v-80v-95l2 -81l2 -68l2 -25l4 -26l8 -25l8 -26l5 -23q0 -17 -13 -33q-10 -12 -49 -28l-16 -5l-19 -2l-37 5l-43 8q-50 19 -73 35q-31 16 -47 47l-4 6l-3 10l-2 8q0 25 13 56l24 57l8 16l7 17l2 63v76v47
l-2 43v49v37l-41 -8q-16 -4 -54 -10q-4 -1 -18.5 -5t-22.5 -6h-4l-59 -12l-47 -10v-72v-78l2 -53v-51v-107l2 -59v-29l8 -30l4 -7l6 -36l4 -33l-4 -31q-3 -13 -18 -27q-12 -15 -33 -18l-37 -6l-12 2h-10q-38 6 -62 20q-17 9 -53 35l-10 10l-4 9l-13 20l-4 14l4 15l13 22v99
l-2 108v25v26l-2 127v101l-15 24l-12 25l-10 16l-8 15l-15 30l-6 33l2 16q0 13 12 25l19 16l12 7l10 8l7 4l-2 67v60v53v47q-5 20 -5 25v96l2 98v49q0 19 9 99l-4 8l-11 20l-2 27v10l4 11l19 22l35 23l28 8l41 2l23 -2h24q35 -6 74 -25q39 -17 51 -49l4 -16l2 -13
q0 -17 -8 -30l-12 -29l-6 -8l-6 -10l-23 -39q-8 -15 -8 -43l-2 -29l-2 -70l-2 -82v-92v-86l2 -82l49 11l59 10l9 2l12 2l63 12l47 12l-2 19v22l-6 218q0 65 2 88q10 181 11 181v-1l-15 41l-4 35q0 26 17 49q15 21 53 41l18 6l25 2q17 0 35 -4l36 -6q52 -14 84 -43
q41 -29 41 -72q0 -20 -10 -33l-20 -31l-2 -4l-25 -28q-7 -11 -10 -37v-10v-33l-2 -127l2 -170l2 -53l2 -54l16 -14l19 -20l16 -25l16 -23l17 -34l6 -29v-8z" />
    <glyph glyph-name="I" unicode="I" horiz-adv-x="442" 
d="M397 27l-2 -15q-10 -23 -37 -32q-29 -13 -61 -13h-12l-11 2l-12 2h-12q-72 9 -119 31q-42 20 -57 59l-4 13l-2 14q0 20 12 41q15 23 31 35l-7 225l-8 285v20v21l-14 399l-4 178q0 19 -4 31l-11 29l-4 6l-4 10l-4 12l-2 15q0 12 10 32q2 8 33 39q11 13 33 19q24 4 49 4
l23 -2l26 -2q50 -10 92 -35q50 -29 64 -57l2 -9l2 -6l2 -6q0 -27 -8 -43l-19 -37l-6 -12l-6 -14l19 -1114l6 -33l10 -25l2 -4l10 -27l4 -26v-10z" />
    <glyph glyph-name="J" unicode="J" horiz-adv-x="797" 
d="M772 1348q0 -28 -8 -41l-21 -23l-8 -4l-16 -16q-6 -6 -6 -23l-4 -72l-2 -165l-2 -52v-51v-137l-3 -143q0 -89 -2 -119q-8 -161 -8 -195q0 -71 -6 -127q-5 -50 -12 -88q-9 -34 -12 -37l-11 -22q-10 -17 -30 -31q-23 -16 -43 -31q-51 -32 -101 -32h-8l-6 2h-4q-28 5 -72 28
q-13 6 -35 23q-10 6 -35 31q-53 53 -114 145l-127 194l-8 9l-7 6l-12 6l-6 6q-10 5 -31 29q-10 23 -10 59q0 26 43 41q51 18 94 25l43 2l41 2l35 -2l21 -4q22 -20 30 -45l10 -50l3 -38q3 -22 16 -37l2 -9l4 -18l4 -10q3 -11 10 -29q2 -6 6.5 -15.5t10.5 -23.5q10 -22 37 -28
q16 0 28 43q11 48 11 120q0 73 8 185q6 126 6 184l-2 217l-2 187l-2 94v35l-2 30v27q0 10 -4 22v23q0 32 18 59q14 27 80 39h10q18 0 41 -10q23 -5 53 -23q45 -17 82 -53q35 -33 35 -69z" />
    <glyph glyph-name="K" unicode="K" horiz-adv-x="1020" 
d="M1057 141l-2 -10q-9 -68 -68 -127t-125 -59h-10l-10 2l-11 2l-10 4q-48 14 -65 51l-27 70v6q-3 28 -18 55q-9 25 -37 47l-332 260l23 -221l6 -37l10 -30l10 -29q0 -6 2 -8q2 -6 2.5 -10t1.5 -9l2 -10v-8l-6 -35q-2 -10 -28 -37q-11 -9 -43 -24l-48 -9h-8q-29 0 -47 9
q-15 4 -47 22q-44 31 -68 60l-10 16l-6 16l-4 13v8l6 24l14 21l15 18q6 12 6 27l-47 1089l-6 27l-11 27l-6 6l-4 10l-6 18l-2 19q0 18 8 33l37 43l21 4l38 4l35 -2l41 -2q39 -6 76 -25q33 -17 55 -47l8 -20l3 -19q0 -12 -5 -22q-2 -13 -8 -19l-2 -6l-12 -27l-6 -30v-449
l309 551l4 4l4 8l6 23l9 23q9 34 20 49q9 18 57 34l9 3h12l31 -5l34 -10q50 -19 80 -51q33 -33 33 -70v-6l-2 -4q-6 -31 -16 -41q-7 -8 -27 -20l-18 -11l-15 -16l-373 -647l426 -326l15 -12l18 -10l13 -6l12 -9l47 -30q16 -17 31 -45l2 -11l2 -10l2 -10v-10v-15z" />
    <glyph glyph-name="L" unicode="L" horiz-adv-x="774" 
d="M788 225q0 -45 -28 -84q-30 -38 -68 -55l-57 -12h-55h-15h-10l-37 -2q-21 0 -35 -9q-20 -3 -37 -18l-22 -22l-4 -9l-6 -4q-7 -11 -37 -28q-25 -14 -86 -27h-6h-11h-12l-14 2q-39 12 -86 51q-39 39 -56 92q-3 14 -4 15v10q0 17 9 31l18 20l4 6l17 21l6 26l-78 1121l-8 12
l-11 18l-14 23l-6 24l6 23q3 9 21 27l51 26l59 8h10h9q56 -6 108 -28q46 -25 62 -58l8 -20l2 -14l-6 -21l-11 -14h-2l-10 -15l-4 -16l68 -1016l110 45l15 4l14 7l51 24q30 10 51 10l8 -2h13q16 -4 24 -10q15 -10 27 -22q30 -31 55 -82l6 -27l4 -25v-6z" />
    <glyph glyph-name="M" unicode="M" horiz-adv-x="1704" 
d="M1651 39l-2 -12l-2 -7l-5 -10l-6 -8q-22 -31 -57 -45q-40 -16 -68 -16l-18 2l-20 2q-28 3 -48 10q-17 3 -39 18q-18 14 -36.5 24.5t-36.5 27.5l-23 22q-5 8 -8 23q-2 12 -6 16v14l6 35l18 27l5 8l14 23l4 30v4v2l-55 623l-320 -715l-4 -18l-2 -19l2 -20q0 -13 4 -21v-12
l2 -10v-17l2 -14l-6 -35q-3 -13 -26 -30q-27 -18 -50 -23q-24 -8 -63 -8h-6q-61 0 -111 35q-51 29 -63 86q-3 15 -4 16v16v17l4 14l4 17v10l-2 10l-2 10l-267 711l46 -653l4 -37l6 -31l10 -41l4 -35q0 -31 -20 -57q-23 -28 -82 -49l-15 -4l-16 -2l-39 6l-43 12
q-20 10 -78 49q-36 37 -49 84l-4 10v11q0 14 8 22l14 19h3l12 18l8 23l-41 1038l-6 31l-10 32l-9 13l-4 14l-4 14l-2 19l6 33q6 15 27 36q17 18 41 25q23 3 31 6q24 4 43 4l22 -2l25 -2q43 -6 82 -18q34 -12 65 -37q17 -12 33 -39l6 -33v-8l-2 -29l6 -24l365 -883l409 940
l9 29v33l-2 8v12v10l2 13l10 22l26 27l39 18q22 4 45 4h29l29 -6q63 -15 117 -55q51 -40 51 -94q0 -23 -8 -31l-19 -17l-6 -6l-12 -14l-6 -16l77 -1088q0 -19 9 -33l18 -30l20 -37q8 -16 11 -37z" />
    <glyph glyph-name="N" unicode="N" horiz-adv-x="1106" 
d="M1055 131q0 -60 -43 -106q-48 -48 -111 -48q-65 0 -123 41q-56 39 -88 113l-10 35l-2 33l-4 37q0 24 -15 38l-59 97q-22 34 -34 52t-29 48q-46 77 -70 125l-31 55l-30 58l-44 82l-34 81v-141l6 -172v-39q0 -9 4 -43l6 -76l8 -170l6 -67l4 -23l15 -24l12 -35l6 -35l-6 -29
q-5 -14 -14 -28q-13 -17 -45 -33l-54 -8l-18 2l-18 2q-56 9 -107 47q-46 40 -55 86l-2 10v8q0 25 8 33q7 13 18 19l7 4l14 14q6 6 6 23l-55 1130l-2 10l-2 13l-2 14v16l4 25l24 20l35 13l45 4l29 -2q16 0 28 -4q48 -6 80 -25q39 -14 60 -41l8 -12l4 -10l2 -13l2 -12l-2 -14
l-2 -15l-4 -12v-12l2 -10q9 -53 55 -160q4 -11 45 -99q6 -13 15 -31l18 -36t19 -37l18 -39l22 -39q50 -97 136 -244l59 -106l-20 903l-5 19l-10 16l-4 4l-6 14l-2 13l8 26l29 35l26 17l37 6l31 -4q20 -3 33 -11q50 -14 100 -55q43 -32 49 -82q0 -24 -8 -37q-9 -15 -22 -18
l-5 -4l-18 -15l-8 -22l26 -1008q0 -18 7 -37l20 -30l2 -2l17 -31q8 -13 8 -35z" />
    <glyph glyph-name="O" unicode="O" horiz-adv-x="993" 
d="M946 774q0 -140 -26 -278t-76 -263q-114 -278 -266 -278q-87 0 -134 12q-43 11 -116 53q-108 64 -187.5 290.5t-79.5 463.5q0 233 74 469q74 232 168 256q28 4 31 4q15 0 55 -10q42 -10 62 -10q19 0 61 10t57 10q17 0 33 -4q172 -46 264 -270q40 -95 60 -206.5t20 -248.5
zM696 774q0 214 -43 356q-56 189 -161 189q-87 0 -140 -189q-45 -159 -45 -356q0 -194 62 -401q61 -205 131 -205q61 0 129 209q67 207 67 397z" />
    <glyph glyph-name="P" unicode="P" horiz-adv-x="872" 
d="M836 1282q0 -40 -5 -78q-7 -38 -20 -84q-21 -81 -68 -182q-60 -133 -120 -229q-31 -51 -71.5 -105.5t-78.5 -95.5q-28 -32 -41 -45q-23 -23 -51 -23q-37 0 -43 6q-11 7 -19 23l-6 -111q-2 -12 -2 -45q0 -18 2 -30.5t2 -30.5q0 -73 4 -111q2 -10 4.5 -26t4.5 -29l12 -41
q4 -20 4 -22q0 -16 -8 -29q-10 -17 -37 -29t-63 -12q-59 0 -86 10q-43 25 -52 29q-27 12 -37 42.5t-10 47.5q0 29 21 49l18 29l-33 1196q-6 9 -6 16q-4 16 -4 19q0 24 4 32q9 16 39 31q16 8 39 16q6 3 35 3q31 0 41 -3q15 -3 69 -12q19 0 91 33q57 23 86 31q50 10 59 12
q27 6 45 6q25 0 49 -6l47 -12q42 -15 82 -45q34 -31 76 -84l20 -52zM575 1296q-6 23 -38 23q-50 0 -117 -43q-72 -47 -117 -113l4 -422q57 32 162 211q111 193 111 305q0 26 -5 39z" />
    <glyph glyph-name="Q" unicode="Q" horiz-adv-x="1061" 
d="M1126 -43q0 -53 -43 -84q-37 -33 -98 -33h-8l-6 2h-4q-26 3 -47 19q-20 11 -43 35l-48 51l-51 57l-33 29q-9 12 -30 30l-29 -24l-24 -23q-6 -5 -16 -13t-11 -9q-6 -3 -13 -6t-12 -6q-32 -19 -94 -19q-114 0 -194 45q-82 42 -132 135q-52 91 -81 197q-28 95 -46 221l-6 84
l-2 82l6 92q0 18 5 45q1 10 10 49q32 166 104 314q72 145 158 213q22 19 47 30q22 11 47 11q17 0 29 -4l26 -7l19 -6l24 -2l29 2l21 2l14 4l33 7l47 4q118 0 198 -146q70 -139 99 -325l8 -82l4 -78q0 -134 -14 -275q-17 -152 -90 -303l-13 -26l-14 -27l176 -156l14 -12
l17 -6l12 -2q21 -9 33 -18q12 -14 20 -48l2 -10v-10zM729 805l-2 69v27v23q-4 20 -4 24q-12 130 -49 226q-32 104 -107 104q-15 0 -32 -10q-14 -9 -43 -41q-28 -34 -48 -76q-26 -50 -38 -78q-41 -92 -62 -213l-10 -67l-2 -66l2 -84l6 -86q0 -69 12 -131q12 -59 39 -137
q41 -121 115 -121q17 0 31 6l16 25l4 8l4 8l6 8l-92 80l-10 4l-10 4l-6 4q-19 9 -25 15q-8 8 -14 37v10q0 40 32 69q33 30 70 41l20 7l21 2l16 -2l17 -7q8 -3 8 -6l2 -12h2v-10l6 -8l64 -50l30 93l19 86q5 29 7 46t3 27v33z" />
    <glyph glyph-name="R" unicode="R" 
d="M1098 106q0 -60 -60 -98q-60 -37 -133 -37q-55 0 -82 21q-7 4 -16 31q-11 25 -21 32q-40 35 -174 123q-70 48 -147 100t-105 70l23 -190q47 -53 47 -101q0 -8 -2 -12q-6 -44 -43 -65q-40 -25 -88 -25q-7 0 -43 4q-59 12 -107 49q-53 45 -53 96q0 18 17 37q26 27 32 43
l-53 1041q-3 44 -24 82q-21 31 -21 51q0 39 39 65q40 25 70 31q10 1 17.5 2.5t14.5 3t13 2.5q10 2 34 2q45 0 72 -30q1 -1 8 -19q6 -16 21 -22q97 49 194 69q107 23 205 23q66 0 127 -58q62 -57 62 -106q0 -133 -72 -262q-33 -53 -49.5 -79t-24.5 -38q-77 -126 -166 -229
q-6 -8 -143 -152l471 -328q27 -13 53.5 -27t50.5 -26q56 -30 56 -74zM623 1251q-11 17 -25 17q-45 0 -156 -105q-51 -47 -106 -102l-4 -330q103 123 192 258q105 163 105 234q0 16 -6 28z" />
    <glyph glyph-name="S" unicode="S" horiz-adv-x="891" 
d="M870 303q0 -135 -90 -246q-88 -112 -227 -112q-116 0 -195 41q-77 36 -122 92q-31 32 -56 74l-24 51q-18 7 -29 18l-29 25l-43 35q-15 17 -28 41l-9 16l-2 18q0 11 11 27l28 25q43 21 74 30l64 11q51 0 92 -27q36 -28 55 -57q17 -33 22 -48l15 -32l6 -13l8 -10l8 -22
l11 -19q9 -28 26 -45q21 -19 51 -22q61 0 82 35.5t27 89.5v43l-2 36v4q0 82 -41 121q-25 29 -88 60q-25 5 -45 16l-51 21q-100 41 -162 127q-69 87 -92 180l-13 51l-2 53v25v26q0 87 27 164q29 83 84 160q97 147 254 147q124 0 203 -65q64 -64 96 -145q16 -44 22 -93l11 -73
l2 -11q7 -27 8 -28l6 -39l4 -45v-6l-2 -31q0 -16 -8 -29q-3 -15 -14 -26q-7 -7 -35 -27q-21 -14 -62 -14h-16l-14 4q-54 12 -93 51q-42 50 -53 125v6l-2 8q0 13 4 25l10 22l11 17l6 14l-4 6l2 10v9v8q0 14 -12 31q-16 12 -52 12q-58 0 -86 -58q-29 -62 -39 -129v-28v-27
q0 -90 62 -149q63 -60 143 -99l4 -4l6 -2q127 -62 213 -145q84 -87 84 -285z" />
    <glyph glyph-name="T" unicode="T" horiz-adv-x="885" 
d="M877 1325l-3 -27l-12 -28q-14 -26 -47 -35l-65 -2h-2h-15h-10h-8l-25 -4l-16 -2l-23 -13l-55 -22l-2 -2l-49 -19l-29 -12v-33q0 -20 -2 -30.5t-2 -24.5l-2 -90l2 -334l8 -282l6 -154l4 -57l7 -37q12 -30 14 -33l4 -10l6 -13l4 -18l4 -18l-4 -21l-12 -22q-14 -27 -53 -43
l-68 -13h-16l-10 2q-67 6 -119 45q-53 32 -62 80v6l6 29l19 25l6 6q16 20 23 28q8 9 8 35l-2 60l-2 151q0 37 -2 70t-2 80l-3 168l-2 202l7 177l-21 -7l-18 -6l-33 -14l-35 -4h-14l-10 4l-15 6l-14 10l-39 29l-29 27l-26 36l-9 43v15l5 16q3 16 77 43l176 58l19 4l18 6
l179 55l106 39q19 11 20 14q9 2 17 15l4 4l23 20q10 6 34 10l35 -8q12 -4 23 -10q6 -4 26 -16q39 -30 66 -68q31 -39 31 -86z" />
    <glyph glyph-name="U" unicode="U" horiz-adv-x="993" 
d="M952 1356l-2 -17l-2 -12l-8 -12l-4 -15l-4 -6l-2 -6v-26v-35v-262q0 -168 -25 -349q-30 -249 -121 -466.5t-282 -217.5q-99 0 -172 48q-72 46 -119 149q-88 208 -123 465l-20 229l-5 207v98q0 39 5 74l2 33l2 20l-13 48l-6 49q0 24 10 49q5 10 7 16q2 3 7 11t13 20
q11 11 35 18l49 9l25 -2l26 -5q53 -10 97 -38q45 -32 51 -89l-6 -38l-13 -27l-4 -8l-10 -23l-4 -18v-10l-2 -13v-24l6 -195q0 -41 4 -111q2 -39 16 -157q5 -42 9.5 -85.5t11.5 -107.5q7 -67 27 -170q27 -159 69 -159q55 0 94 165q12 45 35 164q12 79 27 193l20 248l6 194
l-2 41l-2 27v6v4l-2 10l-2 17l-12 18l-12 18l-21 35q-8 15 -8 39l4 33l21 37q14 26 61 41q43 14 80 14h8h10q19 0 43 -4q9 -3 52 -22q34 -17 55 -58l16 -35z" />
    <glyph glyph-name="V" unicode="V" horiz-adv-x="993" 
d="M989 1360l-2 -6l-2 -11l-2 -6l-16 -22l-21 -15h-4l-22 -18q-6 -6 -7 -8q-2 -6 -6 -14l-299 -1084l-2 -10v-10l2 -19q0 -12 4 -24l2 -27l2 -27q0 -24 -6 -47q-10 -24 -24 -39q-18 -17 -41 -28l-41 -8l-29 4q-12 2 -24 8q-48 14 -101 65q-49 49 -67 105l-4 8l-3 8l-2 6v11
l2 16l7 16l4 19l2 18v4l-2 4l-209 1053q-6 12 -10 16l-17 15l-6 4l-4 4l-27 22q-10 18 -10 37q0 43 47 64q19 8 51 14q28 6 58 6h14q57 0 113 -24q55 -19 67 -60l2 -12l2 -10l-4 -23q-3 -15 -10 -22l-2 -4l-6 -21l-4 -20v-4v-4l133 -693l188 738l2 30v29l-2 12v15
q0 23 11 47q8 19 45 43l36 14l43 6l19 -2l18 -2q62 -9 113 -47q51 -29 51 -82v-8z" />
    <glyph glyph-name="W" unicode="W" horiz-adv-x="1737" 
d="M1733 1423l-7 -28q-6 -19 -8 -21l-8 -14l-6 -10l-14 -25l-9 -25l-272 -894l-8 -31l-4 -29l-2 -51q0 -29 4 -49l2 -35l2 -31q0 -45 -12 -80q-15 -39 -56 -65l-53 -27l-53 -12h-19l-18 -2q-43 0 -90 18q-51 21 -86 51q-29 29 -35 52q-9 22 -12 59l2 33l6 33q0 20 4 32l2 37
v15l-2 16l-2 12l-4 15l-156 561l-188 -652l-2 -8l6 -24l12 -19l6 -6q4 -12 15 -22l6 -25q0 -82 -17 -127q-12 -50 -49 -96l-6 -8l-4 -7q-16 -23 -47 -32q-34 -13 -59 -13h-11l-8 2q-34 0 -76 25q-28 14 -55 51l-14 35q0 19 -4 35v12v27l-2 24l-267 1149l-10 23q0 14 -8 22
l-8 15l-4 14l-7 16l-2 17l2 12l5 12q12 39 51 60q37 20 88 26h8q34 0 61 -6q26 -8 45 -24q27 -18 33 -47l8 -62v-10v-17v-12v-14l5 -14l131 -711l211 768l2 4v6l-2 10l-2 13l-5 8l-4 16l-2 19l2 22l19 29q14 20 53 33q37 12 76 12h14l12 -2q40 0 76 -21q35 -12 58 -41
l16 -30l4 -25l-2 -14l-2 -13l-2 -6q-3 -23 -4 -24l-2 -21v-10l2 -12l209 -721l225 756l6 34v39v13l6 55q6 26 31 45q5 3 9.5 6t8.5 6q15 7 37 19l64 16l12 2h14q27 0 33 -2q19 -4 37 -14q32 -8 51 -43l12 -33z" />
    <glyph glyph-name="X" unicode="X" horiz-adv-x="1116" 
d="M1110 90q0 -79 -47 -117q-49 -36 -107 -36h-14h-12q-50 6 -94 30q-50 24 -70 47l-2 6l-12 23l-4 18l2 21l10 16l4 11l2 12l2 12l-2 10l-2 11l-221 381l-211 -435l-6 -20l-2 -17v-16l4 -12l2 -15l2 -12l-6 -16l-13 -19q-25 -18 -41 -20l-53 -8l-26 2l-25 4q-24 3 -57 16
q-29 11 -56 27q-49 31 -49 78l2 12l2 14l15 21l18 14l4 4l14 8l13 15l313 614l-299 553q-6 6 -14 10l-17 11l-22 10q-9 3 -12 26v7q0 30 47 63q22 16 49 27q33 15 55 22l43 8l41 5l27 -5l20 -6q8 -4 14 -10q9 -12 13 -16l10 -37l2 -12l2 -13l2 -20l6 -17l185 -368l151 338
l6 24l6 29l9 39l22 35q15 13 37 20q15 6 53 6h19l20 -2q58 -10 101 -39q45 -33 45 -84v-4v-4q0 -35 -19 -51l-31 -19h-2l-24 -14q-14 -14 -17 -20l-237 -492l350 -586l14 -20l23 -12l33 -25q12 -12 12 -41z" />
    <glyph glyph-name="Y" unicode="Y" horiz-adv-x="1073" 
d="M1120 1376q0 -37 -16 -63q-15 -24 -43 -45l-6 -4l-6 -7l-37 -32q-20 -23 -27 -43l-348 -879l18 -188v-17l4 -14v-10l3 -11l2 -12v-10q0 -24 -13 -47q-12 -22 -57 -39l-33 -6l-37 -4l-14 2h-12q-67 6 -113 43q-51 32 -51 92l2 8v8q3 24 12 39l23 33l4 4l2 6l20 35
q9 15 9 45l-19 205l-272 807l-15 28l-20 33l-14 21l-13 20l-10 25l-4 26l2 17l6 16q11 21 47 31q23 9 37 12q10 2 37 2h14h17l53 -2l37 -6l6 -4l33 -23l18 -20q12 -15 16 -43l5 -43v-4l2 -12l2 -27l6 -27l172 -536l225 581l6 19l6 18q5 15 7.5 20.5t5.5 14.5q8 21 18 33
q15 29 57 49q16 9 35 12l35 2h14q31 0 54 -8q26 -10 57 -31q51 -32 51 -90z" />
    <glyph glyph-name="Z" unicode="Z" horiz-adv-x="1106" 
d="M1114 1341l-4 -20l-8 -18q-5 -13 -33 -29l-41 -12h-2l-43 -17q-21 -7 -35 -31l-598 -983h324l33 7q14 10 24 20l4 2l29 21q13 8 39 8q77 0 131 -60q49 -48 55 -112v-13q0 -36 -14 -61q-17 -30 -51 -53l-9 -4l-16 -6l-12 -3l-35 7l-39 12l-41 12l-43 4l-485 2l-31 -6
l-25 -8l-28 -8l-25 -6h-6q-43 8 -78 49q-33 39 -45 94l-6 27v26l2 31l8 29q8 16 27 24l35 19h2l32 12q19 10 27 25l557 923l-303 -39l-29 -10l-20 -8l-4 -4l-27 -10l-22 -3h-19l-22 11q-34 15 -51 47q-22 33 -31 78l-2 16v16q0 30 8 50q6 22 20 36l15 11l14 8l12 4h17h20
l27 -4l26 -6l25 -2h10l498 47q16 0 27 6l24 18l2 2q7 8 25 19q8 8 31 8q17 -3 22 -8l21 -10q2 -1 15 -11.5t19 -15.5q10 -10 21 -25q19 -22 39 -61l12 -33z" />
    <glyph glyph-name="bracketleft" unicode="[" horiz-adv-x="645" 
d="M635 -178q0 -39 -10 -49q-10 -13 -37 -19q-27 -5 -65.5 -13t-90.5 -20q-134 -28 -147 -28q-27 0 -90 82q-68 80 -68 94q2 24 4 52.5t4 76.5q4 102 4 164v141q-1 33 -1 61q-1 28 -3 68q0 24 4 354q3 274 4 274v-11q0 86 -6 176q-6 88 -6 116q0 51 27 62q27 12 84 12
q17 0 69 8q68 7 88 7q18 0 82 -11q52 -12 60 -12q14 0 37 -68q20 -64 20 -84q0 -6 -2 -8q-15 -3 -18 -6q-14 -8 -111.5 -14t-112.5 -13q-9 -3 -18 -307q-4 -139 -5 -189t-2 -131t-1 -167q0 -69 4 -223q3 -114 6 -211q0 -31 6 -54.5t21 -23.5q22 0 51 6q66 14 86 14
q23 0 53 -12q80 -33 80 -94z" />
    <glyph glyph-name="bracketright" unicode="]" horiz-adv-x="645" 
d="M557 1253q-2 -39 -4 -62t-4 -65q-4 -102 -4 -165q0 -97 2 -142q0 -88 2 -129q0 -24 -4 -352q-3 -276 -4 -276v12q0 -87 6 -176.5t6 -116.5q0 -49 -27 -62q-27 -12 -84 -12q-2 0 -94 -10q-44 -4 -63 -4q-34 0 -70 8q-60 14 -72 14q-13 0 -34 68q-23 69 -23 84q0 6 2 8
q15 3 18 6q13 7 113 15q94 6 111 12q9 3 18 307q5 153 7 254q1 101 1 233q0 68 -4 224q-3 106 -6 211q0 31 -6 55q-6 22 -21 22q-22 0 -51 -6q-66 -14 -86 -14q-21 0 -53 12q-80 35 -80 94q0 37 10 52q12 10 39 16q7 1 63.5 14.5t92.5 20.5q126 27 145 27q24 0 93 -80
q65 -85 65 -97z" />
    <glyph glyph-name="asciicircum" unicode="^" horiz-adv-x="1229" 
d="M1034 967q0 -26 -18 -41q-20 -15 -80 -15q-52 0 -72 11q-19 8 -28 26q-18 33 -107 160q-108 156 -117 156q-5 0 -127 -158q-118 -160 -133 -164q-6 -3 -37 -6q-20 -2 -69 -2q-60 0 -60 53q0 10 160 222.5t168 215.5q13 8 41 11q18 2 57 2q76 0 99 -15q10 -7 168 -225
q155 -219 155 -231z" />
    <glyph glyph-name="underscore" unicode="_" horiz-adv-x="979" 
d="M1001 -256h-1024v102h1024v-102z" />
    <glyph glyph-name="grave" unicode="`" horiz-adv-x="1024" 
d="M647 1190q0 -23 -16 -45q-20 -23 -45 -23q-66 0 -166 113q-105 111 -111 168q6 28 51 55q47 29 74 29q54 0 76 -60q18 -45 23 -56.5t12 -27.5q21 -46 49 -75q10 -9 19 -18t14 -15q20 -26 20 -45z" />
    <glyph glyph-name="a" unicode="a" horiz-adv-x="983" 
d="M944 88q0 -48 -41 -80q-4 -4 -72 -26q-14 0 -24 2t-15 2.5t-10 1.5q-10 2 -22 6q-23 9 -41 22q-27 21 -33 33q-11 19 -20 72l-9 37l-4 47l-10 -25l-14 -24q-28 -41 -51 -68q-28 -30 -72 -63q-81 -62 -166 -88q-11 -3 -39 -9q-31 -6 -53 -8q-63 0 -121 43q-61 42 -94 150
q-4 16 -10 55q-5 20 -5 45q0 137 101 219q92 75 219 137l100 45l90 43l39 19q27 17 33 26q0 3 2 5q-2 2 -2 6q0 16 8 49q0 26 -8 39q-3 17 -25 26q-2 0 -22 7q-28 4 -45 4q-53 0 -105 -25q-39 -18 -100 -59q-22 -17 -24 -21q-3 2 -3 4q-8 -5 -32 -43q-22 -21 -33 -28
l-51 -15q-45 0 -78 39q-35 41 -35 84q0 15 4 27l12 26q7 15 37 39q7 4 18.5 12t20.5 13q24 15 41 22q68 36 197 76q84 22 123 27q72 10 135 10q136 0 168 -121q17 -58 33 -147q12 -76 12 -160l4 -49l12 -158q0 -41 6 -76q3 -32 19 -88q3 -17 14 -37q2 -5 15 -24l18 -31
q12 -15 12 -33q0 -2 -4 -14zM623 528l-17 -8q-11 -4 -18 -6.5t-23 -9.5q-14 -7 -41 -25l-86 -45q-8 -4 -41 -26q-31 -25 -39 -31q-5 -3 -18 -17q-12 -12 -33 -26q-31 -26 -49 -49q-22 -30 -22 -60q0 -26 22 -61q20 -27 51 -27q26 0 62 17q32 15 67 51q32 31 68 76q2 2 39 59
q49 78 78 188z" />
    <glyph glyph-name="b" unicode="b" horiz-adv-x="797" 
d="M760 496l-2 -64q0 -33 -4 -61q0 -72 -19 -135q-19 -62 -55 -136q-58 -123 -197 -123q-64 0 -114 31q-47 37 -84 90l2 -22l6 -19l8 -22l2 -23v-12l-4 -4l-4 -6q-8 -13 -41 -23l-57 -8h-9h-10q-20 0 -26 2q-32 9 -46 14q-33 14 -43 33l-6 19l-2 16l4 20l9 19l2 6l10 23
l4 26v1053l-2 29l-8 26l-4 6l-7 23l-2 26l2 19q2 10 3.5 16l1.5 6q13 36 43 52q17 9 34 12q22 4 37 4l13 -2h16q41 -6 72 -27q37 -24 51 -55q6 -9 6 -20l2 -19l-2 -22q-3 -16 -10 -23l-6 -12l-5 -8l-16 -37l-8 -41v-236l63 80q33 39 93 39q121 0 198 -129q78 -135 103 -291
l6 -55zM518 387v23v20l-2 35v31l-2 49q0 29 -4 53q0 33 -6 74q-11 49 -21 76q-22 66 -55 69l-10 -2l-6 -6q-22 -12 -43 -70q-10 -22 -13 -37q-12 -31 -20 -71l-14 -74l-5 -61l2 -52l5 -55q12 -91 41 -164q27 -71 63 -71q63 0 78 71q12 70 12 162z" />
    <glyph glyph-name="c" unicode="c" horiz-adv-x="692" 
d="M680 303q0 -23 -6 -41q-10 -20 -23 -33l-20 -24q-5 -5 -29 -41q-4 -7 -8 -13t-14 -20q-13 -22 -45 -63q-25 -28 -62 -62q-59 -53 -133 -53q-156 0 -227 147q-72 149 -72 340q0 49 2 58q0 98 27 188q24 94 69 182q93 170 242 170q99 0 160 -80q59 -83 84 -178l12 -67
l4 -60v-28q0 -23 -6 -35q-3 -35 -35 -49q-34 -17 -72 -17q-31 0 -57 13q-31 10 -51 30q-19 24 -19 56v82l2 65l-6 57q-3 22 -22 25q-6 -6 -8 -10q-10 -12 -14.5 -19t-8.5 -12q-5 -16 -7 -25t-9 -34q-13 -49 -19 -82q-2 -11 -4.5 -23.5t-7 -34.5t-4.5 -26q-8 -44 -10 -86
l-9 -88l-2 -84q0 -76 13 -127q12 -53 43 -56q35 0 63 31q20 25 39 68q3 9 6 12q9 22 10 29l5 47l2 28q3 13 18 25q9 6 31 10l37 4q20 0 22 -2q20 0 41 -6q25 -11 49 -24q29 -20 29 -64z" />
    <glyph glyph-name="d" unicode="d" horiz-adv-x="797" 
d="M743 41q0 -40 -36 -61q-40 -25 -107 -25q-38 0 -59 8q-26 6 -37 27q-10 7 -10 26q0 22 18 60l2 22q-39 -56 -86 -88q-46 -33 -113 -33q-136 0 -198 123q-34 69 -54 136q-18 60 -18 135l-6 125q0 34 2 53q0 27 6 57q20 151 100 289q77 131 201 131q58 0 90 -39
q17 -16 49 -59q3 -4 8 -9.5t9 -11.5v238q0 26 -8 39q-1 2 -21 41q-18 30 -18 65q0 41 41 76q35 31 98 41q53 0 88 -21q36 -20 51 -67q4 -20 4 -25q0 -24 -10 -49.5t-12 -27.5l-2 -29v-1051l2 -28l14 -27zM483 496q0 99 -34 213q-38 110 -76 110q-47 0 -68 -100
q-22 -107 -22 -227v-109q0 -107 18 -166q15 -61 72 -61q43 0 78 114q32 111 32 226z" />
    <glyph glyph-name="e" unicode="e" horiz-adv-x="770" 
d="M719 199q0 -37 -25 -68l-30 -45l-25 -25l-43 -36q-23 -20 -102 -50q-22 -6 -39 -8q-32 -6 -33 -6l-43 -6h-37q-140 0 -213 156q-76 155 -76 342q0 39 2 45q0 182 88 354q86 160 234 186q12 4 29 4h26q93 0 164 -65q35 -32 57 -84q21 -46 21 -121q0 -45 -10 -100
q-15 -55 -46 -105q-44 -81 -135 -166q-89 -83 -209 -122v-19q3 -20 17 -45q12 -24 18 -39q22 -39 68 -39h18q26 3 49 19l45 30l19 21q12 8 20 26l11 33q0 14 12 35l27 18q17 7 20 7q13 0 41 -4q22 -8 53 -46q13 -16 21 -38q6 -25 6 -39zM494 768l-7 37q-2 10 -22 26
q-3 5 -6 5q-12 4 -29 4q-37 0 -70 -31q-8 -12 -10 -14q-36 -48 -41 -58q-18 -32 -26 -73q-14 -49 -17 -82q-4 -54 -4 -64q-2 -16 -2 -35v-24q35 8 72 35q18 15 41 36q48 53 86 119l26 62z" />
    <glyph glyph-name="f" unicode="f" horiz-adv-x="741" 
d="M737 897q-3 -31 -22 -53q-19 -25 -43 -25h-6q-19 0 -97 -10q-90 -16 -139 -35v-602q0 -54 37 -98q33 -46 33 -58q-10 -45 -41 -65q-34 -25 -82 -25q-55 0 -90 25q-38 20 -51 61q-12 36 -15 191q-2 100 -2 221v172q0 90 2 125q-36 -14 -71 -14q-54 0 -93 34q-18 20 -28 37
q-13 22 -13 41q0 54 50 66q7 2 25 5.5t48 10.5q64 12 78 12q0 169 21 287q15 92 36 148q32 78 107 135t147 57q57 0 107 -27q51 -26 51 -53q0 -48 -59 -69q-84 -35 -99 -52q-54 -65 -77 -139q-25 -75 -25 -158v-32q4 -34 4 -35q18 6 66 20q60 21 102 21h18q12 -3 12 -4h-1
q38 -13 73 -45q37 -34 37 -70z" />
    <glyph glyph-name="g" unicode="g" horiz-adv-x="774" 
d="M711 -123q0 -202 -187 -217l-20 -2h-25q-50 0 -106 20q-61 20 -107 58l-10 4l-8 2q-23 8 -37 10q-4 3 -8 5.5t-7.5 5.5t-5.5 4q-25 11 -34 59v6l-2 6q0 37 39 56q48 16 92 16h6l39 -2l35 -6q20 -3 30 -15l23 -24l4 -4l27 -27q9 -9 32 -12q42 0 51 84v-1l-4 113
q-4 128 -4 170l-12 -22l-10 -21q-25 -39 -43 -63q-30 -38 -45 -53q-44 -50 -127 -50q-122 0 -187 160q-29 87 -45 170q-16 96 -16 185v6q0 200 74 360q70 162 209 162q57 0 81 -12q24 -14 48 -37l16 -17q5 -9 16 -16l6 -8l9 -4l-9 22l-2 27q0 17 5 29l16 22l27 16l34 5
l11 -3h14q35 -3 61 -26q32 -21 41 -43v-66q0 -17 4 -73v-62q0 -27 5 -67q0 -373 2 -494q2 -120 3 -188q0 -68 1 -148zM475 506v45l-2 47q0 31 -10 76q-11 36 -31 74q-26 69 -78 69q-40 0 -67 -65q-31 -73 -45 -154l-9 -47l-2 -45v-47l2 -49q0 -34 7 -66q8 -36 24 -88
q15 -59 58 -59q4 2 8 2q9 3 18 12q18 9 33 37q26 32 49 86q3 7 21 59q15 48 16 51l4 31q0 19 4 31z" />
    <glyph glyph-name="h" unicode="h" horiz-adv-x="874" 
d="M846 440q0 -68 -6 -121q-12 -70 -17 -94q-4 -18 -7 -35t-9 -36v-11l4 -6q0 -14 4 -22l2 -21q0 -18 -10 -33q-3 -11 -33 -30l-35 -17l-37 -6l-14 -2h-12q-38 0 -62 14q-22 12 -39 43l-8 25l-2 18q0 18 8 31q12 18 15 19l12 22l8 31q7 33 8 47q6 55 7 66l8 141v12v12
q0 133 -15 220q-9 95 -30 98h-2h-2q-19 0 -58 -45q-24 -31 -43 -60q-10 -16 -16.5 -25.5t-15.5 -25.5q-44 -76 -74 -149q-28 -65 -58 -170q-2 -10 -4.5 -21t-3.5 -14q-8 -31 -8 -62q-2 -10 -2 -45v-47l-4 -10l-2 -12q3 -22 4 -23l10 -22v-2l10 -25q5 -10 5 -22l-3 -17
q-5 -13 -10 -18q-24 -36 -53 -56q-19 -16 -45 -16q-30 0 -55 23q-22 18 -45 59q-27 38 -27 285l-2 536l2 172q0 47 2 86t2 84l2 119l2 107l-2 14v14l-2 13v16l2 20q0 15 10 25q9 18 35 31l51 8l13 -2h14q44 -5 86 -29q35 -24 35 -61v-6l-2 -7l-8 -14l-9 -10l-2 -2l-10 -13
l-4 -16v-592q47 103 117 170q42 37 88 58q44 20 104 20q62 0 107 -43t73 -127q58 -168 58 -387v-14v-15z" />
    <glyph glyph-name="i" unicode="i" horiz-adv-x="414" 
d="M348 1327q0 -22 -12 -55q-10 -28 -14 -49q-3 -6 -3 -27q0 -33 -6 -51.5t-30 -30.5q-27 -14 -56 -14q-9 0 -47 4q-27 3 -57.5 25.5t-30.5 68.5q0 19 8 35q1 3 4 9t6.5 14.5t6.5 15.5v16v27v24v19q6 28 30 42.5t58 14.5q7 0 45 -4q28 -3 63 -25q35 -21 35 -59zM367 920
l-2 -7l-11 -32l-14 -29l-21 -45q-7 -18 -10 -45v-541v-20l4 -17l6 -34l11 -33l14 -54l6 -43q0 -16 -6 -28q-5 -14 -18 -23q-12 -8 -27 -14q-3 -1 -11.5 -4t-17.5 -6l-51 -8q-23 0 -53 10q-28 9 -43 37q-19 35 -27 82q-10 60 -10 137v354v109l2 106l-2 35l-2 33q0 16 -4 32
l-2 29l2 25l6 24l14 27l23 27l27 12q19 8 43 8l20 -4l20 -2l74 -19q35 -12 47 -30l6 -11l5 -10l2 -10v-10v-8z" />
    <glyph glyph-name="j" unicode="j" horiz-adv-x="430" 
d="M342 1300l-4 -24l-6 -27l-8 -24l-2 -25v-4v-4l2 -21l4 -14l2 -2l6 -14l2 -13l-2 -12l-4 -12q-6 -14 -27 -23l-47 -6h-14l-13 2q-12 2 -16.5 2.5t-9.5 1.5q-7 2 -16.5 7t-16.5 8q-24 10 -35 30l-6 13l-2 14l2 18l4 17l4 10l2 12l-2 21l-2 24l-2 15l-2 14v14q0 22 6 37
q5 13 17 25t34 20l43 9q27 0 56 -15q32 -13 43 -37l4 -10l4 -8l2 -10v-9zM344 895l-2 -37l-6 -35l-4 -96l2 -145v-86l2 -90l-2 -68v-70q0 -103 -12 -192q-17 -94 -43 -197q-46 -175 -183 -196l-10 -2h-8l-27 2l-26 6q-53 17 -84 39q-37 24 -37 57l2 14q2 7 8 13q7 12 20 16
l25 4h14l15 -4l14 -2h14l15 2l14 6q20 13 35 80q14 63 14 168q0 90 6 266l4 220v-1l-2 144l-2 139l-4 27l-8 32l-2 4l-6 29l-2 25l2 18l8 19q11 9 41 22q19 8 53 8h8h9q35 0 65 -12q30 -16 45 -31q19 -15 27 -43z" />
    <glyph glyph-name="k" unicode="k" horiz-adv-x="938" 
d="M918 117q0 -24 -7 -49q-9 -24 -26 -43q-33 -39 -88 -58l-25 -6l-18 -2q-27 0 -41 14l-27 25l-8 6l-4 6q-4 11 -17 17l-16 16l-332 233v-155l2 -23l11 -20v-8l4 -7l2 -12l2 -10l-6 -21q-2 -7 -15 -20q-16 -26 -53 -35q-4 -1 -9.5 -2.5t-10.5 -2.5l-15 -3q-24 -3 -33 -6h-8
q-33 0 -63.5 12t-46.5 43l-7 21v18v4v12l3 15l2 20l2 27v88v217v147v154v406v202v11v10l-2 16v19l4 20l6 23q6 21 39 30q31 11 63 11h8h11q22 0 34 -2q7 -1 17.5 -5t30.5 -10q28 -9 41 -24l6 -13l6 -12l2 -12l2 -10l-6 -31l-8 -31l-11 -33l-4 -34l-2 -119v-174v-93v-88
l2 -94v-37q29 31 86 88q54 54 74 72l106 98l37 43l21 35q3 12 18 27q14 13 41 22l15 2h14l24 -2l23 -6q36 -13 78 -49q33 -27 39 -65v-7q0 -19 -25 -47l-49 -47l-20 -18l-17 -19l-305 -313l328 -238l14 -10l16 -8l11 -2l12 -2l43 -21q16 -10 22 -47l3 -14v-10z" />
    <glyph glyph-name="l" unicode="l" horiz-adv-x="414" 
d="M352 25l-2 -17l-6 -18q-14 -30 -57 -53q-13 -5 -41 -13q-22 -6 -41 -6q-37 0 -74 19q-33 12 -53 45l-10 20v21l2 28q3 22 10 33l8 33l4 37l-6 1192l-2 16v16l-2 17v16v10v11l4 12q3 19 41 37q15 5 43 12q28 4 41 4l10 2h12q37 0 60 -8q30 -6 39 -23q12 -12 14 -26l4 -31
l-6 -33q0 -19 -8 -32l-10 -37l-4 -39v-1104q0 -25 4 -41l12 -33l6 -26l6 -23l2 -10v-8z" />
    <glyph glyph-name="m" unicode="m" horiz-adv-x="1327" 
d="M1309 33l-2 -17l-7 -16q-10 -37 -38 -51q-36 -19 -72 -19h-12l-11 2q-14 2 -39 11q-9 1 -38 14q-40 21 -56 49q-18 30 -26 111l-4 180v43l2 39v51v47l-2 88q0 30 -11 37q-10 0 -45 -86l-71 -211l-11 -29l-8 -28l-27 -82l-24 -80l-6 -29v-32q0 -37 -6 -60q-5 -21 -31 -39
l-27 -8l-28 -4l-15 2h-12q-44 6 -82 39q-43 32 -57 76q-1 17 -3 37.5t-3 31.5q-1 18 -3 33t-2 19l-2 184v22l2 23v59v58v47v45l-4 24q0 41 -8 48l-26 -44l-56 -106l-28 -63l-25 -70l-16 -57l-11 -54l-2 -10l-2 -8v-8v-11v-20l4 -18v-21l2 -18l-4 -25q-3 -9 -14 -20
q-7 -8 -31 -17l-35 -6h-14l-14 2q-43 6 -74 31q-34 20 -53 49q-31 46 -31 190l-2 322v27v26v70v69l-6 23q0 12 -6 18l-13 31l-2 27v8l2 8l3 8l4 9q16 19 49 28q37 10 74 10h14q40 0 78 -18q42 -16 51 -43l4 -14v-13l-4 -24l-10 -19l-2 -2l-13 -24q-6 -12 -6 -29v-207
q23 41 43 82q4 10 8.5 18t11 21t11.5 25l10 24q4 10 31 66q18 36 31 55l6 14l8 15l4 12l4 10l14 19q3 11 19 24q3 5 24 13l43 4l35 -2l37 -7q36 -8 51 -14q2 -1 52 -27q44 -28 49 -65q0 -32 -6 -47l-9 -25l-4 -4l-10 -16l-2 -21l-2 -395q10 30 16 45q1 5 21 49l35 105
l67 207q30 93 58 114q16 13 47 19l63 10h10h6q54 0 97 -21q45 -21 51 -63l2 -158l-2 -278v-62v-61v-98v-95q0 -14 10 -24l21 -17l6 -6l24 -24q10 -10 13 -37z" />
    <glyph glyph-name="n" unicode="n" horiz-adv-x="907" 
d="M885 117q0 -38 -47 -68q-39 -20 -99 -31h-12h-8q-33 0 -68 15q-36 13 -53 43v16v47v101v122v52q0 88 -8 145q0 86 -27 92q-13 0 -51 -71l-74 -168l-14 -37l-12 -35l-39 -104l-33 -95l-2 -26l2 -31v-14v-13l-6 -65q-6 -30 -31 -55q-20 -16 -37 -19l-37 -8l-16 2l-14 2
q-7 1 -29 10q-13 3 -29 15q-43 30 -53 41q-22 22 -22 194v422v127v133l-3 21v20l-2 23v22l2 21l5 20l4 8l6 13q8 17 31 26l41 8l18 -2q12 -2 18.5 -3t14.5 -3q12 -2 43 -22q26 -11 45 -29l16 -16l12 -15l5 -20l2 -17l-5 -26l-8 -23l-2 -4l-10 -22l-4 -31v-252l29 63l32 64
q71 145 150 233q71 91 203 91q85 0 112 -162q27 -155 27 -336v-74v-72v-77v-74l4 -14l6 -11l8 -10l8 -10l9 -21z" />
    <glyph glyph-name="o" unicode="o" horiz-adv-x="764" 
d="M731 500l-2 -25q0 -96 -22 -182q-26 -88 -72 -178q-89 -162 -258 -162q-181 0 -264 164q-34 68 -60 174q-20 84 -20 190v6q0 192 62.5 348.5t170.5 190.5l53 12l58 4l31 -2q15 0 41 -4q3 -1 36 -10q23 -9 41 -22q19 -8 41 -21q16 -12 41 -35q58 -58 90 -172
q33 -112 33 -252v-24zM510 494v59q0 138 -16 207q-25 100 -97 100q-68 0 -104 -110q-39 -110 -39 -240q0 -165 18 -248q28 -131 109 -131q44 0 88 123q41 125 41 240z" />
    <glyph glyph-name="p" unicode="p" horiz-adv-x="797" 
d="M760 506l-2 -55l-6 -56q-22 -155 -103 -286q-79 -132 -198 -132q-54 0 -93 37l-63 84v-235q0 -28 8 -41q5 -19 16 -37l3 -10l8 -11l10 -24l2 -25l-2 -18l-6 -19q-24 -35 -53 -55q-22 -13 -35 -16q-4 -1 -11.5 -2.5t-13.5 -2.5l-18 -3l-10 -2h-13q-27 0 -69 16
q-17 6 -25 20q-6 10 -10 16t-8 13l-5 25l-2 20l2 25l7 20l4 8l8 29l2 29v1050l-4 25q-3 17 -10 20l-2 5l-9 18l-4 25l2 14l6 16q10 22 46 39q24 8 36 10q26 4 41 4h13l57 -6q25 -7 39 -24l8 -15v-14l-2 -18q-3 -16 -8 -21l-6 -22l-2 -19q32 52 84 86q46 35 114 35
q135 0 197 -123q32 -63 53 -133q21 -66 21 -137l4 -66zM526 506v18v23v33v36q0 70 -2 89q-3 28 -18 86q-16 59 -78 59q-32 0 -59 -68q-31 -77 -45 -168l-5 -55l-2 -53l5 -62q2 -14 2.5 -20.5t1.5 -13.5q6 -25 10 -37q3 -25 10 -47q2 -7 23 -62q14 -44 43 -71l6 -5l10 -2
q32 3 59 68q20 56 33 149l4 54z" />
    <glyph glyph-name="q" unicode="q" horiz-adv-x="797" 
d="M748 958l-3 -22l-10 -18l-2 -5l-10 -20l-4 -27v-1048q0 -19 4 -31l8 -29l2 -6l6 -20l4 -27l-2 -18l-6 -25q-16 -35 -43 -49q-32 -16 -71 -16l-15 2h-12q-39 5 -76 28q-36 24 -49 51l-6 21l-2 18q0 13 4 25l8 22l6 11l6 10l17 37q3 6 6 41v237q-21 -40 -62 -84
q-39 -39 -92 -39q-121 0 -200 132q-45 71 -64 133q-24 67 -39 153l-6 56v55v61q0 36 4 66q12 137 72 270q64 123 201 123q63 0 110 -35q26 -17 43 -35q23 -23 45 -51l-4 19l-6 20l-8 23l-2 20l2 14l4 5l2 8q13 16 39 24l59 6h8h11q38 0 69 -14q36 -16 47 -39l4 -18zM487 506
l-2 53l-6 55q-12 80 -14 91q-12 36 -29 71q-27 71 -59 74q-65 0 -80 -74q-12 -73 -12 -160v-22v-21l2 -34v-33v-49l6 -54q0 -38 8 -73q9 -41 25 -90q15 -54 51 -54l6 2l10 5q19 13 41 71q10 25 17 47q3 11 8.5 29t9.5 33l12 71z" />
    <glyph glyph-name="r" unicode="r" horiz-adv-x="754" 
d="M748 946l-3 -6q-7 -30 -26 -41l-51 -16l-9 -4h-8l-39 -13q-18 -9 -30 -24l-301 -344v-281q0 -33 8 -49l16 -35l4 -10l6 -6l9 -23l4 -26l-4 -23q-2 -8 -3 -11t-2.5 -7t-3.5 -7q-15 -33 -49 -49q-10 -7 -26 -10q-21 -8 -43 -10h-11q-20 0 -55 10q-32 10 -49 31
q-20 20 -23 35l-2 36v23l2 27l2 24l2 27v692l-6 18q-2 13 -8 19l-4 6l-8 14l-2 17l2 12l4 14q8 17 39 27q26 9 53 12q22 3 39 6h10h8q42 0 72 -12q33 -6 39 -35l4 -18l2 -14q0 -7 -6 -19l-8 -10l-4 -2q-3 -1 -10 -8v-11l2 -65l159 166l9 10l12 12l12 13q16 22 39 41
q22 16 57 22h21h20q55 -6 96.5 -37.5t41.5 -79.5v-8z" />
    <glyph glyph-name="s" unicode="s" horiz-adv-x="674" 
d="M598 426q-52 46 -123 84l-55 31q-10 6 -18 10.5t-9 5.5q-5 3 -22 21q-26 21 -41 53q-19 26 -25 67l-4 25v25q0 47 14 75q16 31 39 31q24 -3 29 -16q8 -9 8 -33l-2 -21v-20l-2 -16l-2 -15v-8v-10v-15l4 -24l6 -21l39 -51q26 -21 43 -24l12 -5l17 -2q17 0 43 11
q30 19 41 30q20 16 26 33l13 39l2 19l-6 36l-9 29l-4 6l-4 4v6v7l-6 45l-12 51q-23 55 -78 98q-51 51 -147 51q-129 0 -207 -106q-80 -107 -80 -242q0 -106 51 -172q56 -69 117 -110q4 -3 16 -11t25 -18q22 -16 39 -25q38 -20 63 -47l14 -14l9 -14l4 -29l2 -23
q0 -45 -17.5 -73.5t-33.5 -34.5l-9 -2h-10l-24 10l-19 18l-16 21l-4 8q-14 9 -17 21l-2 22l-10 35q-9 22 -41 37q-13 10 -31 10q-16 4 -39 4h-10h-12l-66 -18q-29 -14 -39 -29v-2q0 -12 21 -57q18 -40 61 -101q55 -67 113 -112q59 -50 129 -50q124 0 219 93q92 88 92 221
q0 129 -55 178z" />
    <glyph glyph-name="t" unicode="t" horiz-adv-x="690" 
d="M715 930q0 -27 -10 -47q-9 -19 -37 -41l-15 -4l-12 -2l-25 2l-24 10l-25 8l-22 2l-13 -2l-12 -2l-67 -35v-629q0 -19 10 -51l24 -39l7 -10l6 -8l14 -29l8 -30v-7l-2 -8q-9 -35 -45 -57q-41 -24 -76 -29h-16l-14 -2q-44 0 -78 23q-38 23 -51 59q-19 39 -19 162l2 276v29
v31l2 127l2 112l-18 -10l-14 -10v-2l-25 -15l-33 -8l-22 2q-14 0 -27 9l-20 6l-23 8q-27 9 -33 12q-11 3 -32 19q-21 14 -21 45l2 10l2 14q9 21 27 27l33 8l10 2h20q15 0 23 8q13 4 28 13q20 7 27 14l64 31l6 4l16 6l14 10v164q0 10 -4 22l-6 25l-8 23l-2 22l2 14l6 17
q28 36 53 53q32 17 64 21h8q52 0 82 -21q39 -17 55 -53l13 -27l2 -22l-7 -27l-14 -18l-16 -19l-6 -24v-91q20 7 22 9l19 14l26 20q14 15 25 19l14 10l21 4l8 -2l12 -2q50 -14 80 -51q26 -33 35 -74v-10v-8z" />
    <glyph glyph-name="u" unicode="u" horiz-adv-x="764" 
d="M743 883q0 -11 -4 -23l-8 -18l-4 -6l-2 -11l-12 -22l-4 -27v-26v-25l-2 -139q0 -39 -2 -72q-3 -35 -3 -78q0 -95 -20 -174q-23 -95 -59 -176q-61 -156 -236 -156q-182 0 -250 162q-33 91 -51 178q-20 86 -20 183l-3 34v37l7 158l14 137v19l4 16l-8 39l-4 37l6 45
q6 12 12 22q7 13 17 21q15 18 39 24l49 9h12q38 0 76 -23q36 -18 45 -43l4 -16v-13l-4 -26q-3 -16 -6 -19l-4 -14l-5 -10l-14 -39l-4 -39v-10l-14 -119l-4 -143v-13v-8q0 -141 22 -254q21 -108 70 -108q53 0 78 118q9 41 16 101q2 13 16 166l4 141v123v14v14l-2 19l-2 16
l-2 8v11q0 14 -4 26l-2 23q0 24 8 37q6 14 25 24l22 9h31h27q7 0 35 -5q5 -2 11.5 -4t24.5 -10q13 -6 37 -22q39 -22 45 -66l2 -6v-8z" />
    <glyph glyph-name="v" unicode="v" horiz-adv-x="856" 
d="M870 938q0 -23 -8 -39l-18 -41l-15 -20l-12 -21l-18 -31q-3 -14 -15 -28l-122 -352q-49 -145 -87 -234q-18 -103 -57 -168q-39 -70 -139 -70q-45 0 -82 11q-30 8 -43 32q-12 22 -12 82v9v12v10l-2 14l-2 15l-2 12l-189 676q-3 16 -14 31l-23 28l-4 4l-4 4l-22 29
q-8 10 -11 31v8l2 6q8 35 45 60q34 24 76 24h12l23 -2l20 -4q60 -12 107 -145q37 -105 82 -285l6 -31l8 -26l25 -107l31 -102l190 590l2 6l27 59q11 21 43 41l37 14l38 2q33 0 41 -2q3 -1 11.5 -3.5t19.5 -6.5q25 -9 39 -39l12 -26z" />
    <glyph glyph-name="w" unicode="w" horiz-adv-x="1354" 
d="M1368 975l-6 -31l-16 -29l-13 -10l-8 -12l-22 -31q-8 -7 -17 -35l-203 -610l-6 -20l-2 -19l-2 -37l2 -32v-23l2 -18q0 -27 -8 -52q-9 -31 -39 -49l-39 -20q-19 -8 -43 -13h-12l-14 -2q-31 0 -37 2q-20 5 -47 19q-29 11 -62 47l-24 39l-7 37v10l3 12v8v13v16l-5 19
l-110 409l-107 -368l-6 -35q0 -19 -4 -31v-23l-2 -20q-2 -15 -8 -23l-8 -20q-31 -45 -64 -72q-40 -31 -86 -41h-12l-10 -2l-33 6q-19 6 -33 15q-31 21 -39 49l-10 61q0 17 -4 29l-4 31l-164 633q-2 21 -8 32l-13 33l-10 23l-10 22l-8 31l-4 29l2 22l6 25q10 23 41 35l69 20
h11h12q21 0 53 -8q21 -3 33 -12q22 -20 27 -46v-51v-12v-8l2 -25l4 -24l110 -441l156 455l4 10v12l-2 19l-2 16l-4 13l-2 16l2 10l4 15q9 27 45 43q18 6 37 10q21 5 26.5 5.5t12.5 2.5q26 0 53 -12q32 -6 47 -21q42 -28 51 -65l9 -72v-35l6 -37l110 -440l178 532l3 11v10v18
l-5 17l-2 8l-2 8l-2 12v13l2 14l6 19q10 21 54 36l84 15h8q45 0 84 -13t47 -38l2 -17z" />
    <glyph glyph-name="x" unicode="x" horiz-adv-x="764" 
d="M750 934l-29 -23l-6 -2l-6 -4l-27 -20q-7 -7 -18 -25l-211 -362l178 -342l10 -21l12 -16l9 -13l8 -10l14 -28q6 -10 6 -29v-14l-4 -17q-17 -43 -51 -59q-30 -19 -66 -19l-37 4q-20 4 -30 11q-36 14 -45 32l-8 35v6l-3 21l-4 22l-100 248l-111 -221l-4 -12q-1 -4 -2 -7.5
t-2 -5.5l-4 -10l-2 -10q-11 -33 -14 -39q-5 -12 -29 -22l-12 -2l-12 -3l-27 5q-13 2 -25 8q-35 9 -67 39q-31 27 -31 67v6v7q0 16 8 24l17 19l6 6l12 14l8 14l162 297l-113 357q-2 12 -16 22q-3 8 -18 19l-3 2l-22 22q-8 8 -12 27v4v4q0 33 37 57q22 13 47 25q6 2 13 3.5
t21 6.5l23 4l23 2q14 0 26 -4q17 0 25 -8q33 -24 43 -47l14 -51l2 -21l6 -24l56 -172l122 217l11 20l10 21l24 47q18 23 43 33l23 6l23 4h10l10 -2q19 0 37 -6q6 -3 20 -10.5t21 -12.5q34 -22 43 -49l2 -6v-4q0 -21 -14 -35z" />
    <glyph glyph-name="y" unicode="y" horiz-adv-x="862" 
d="M864 901q0 -24 -8 -37q-3 -16 -18 -33l-4 -12l-7 -6l-14 -27l-12 -24l-70 -164l-59 -143l-6 -19l-9 -18l-47 -117l-49 -133q-43 -122 -61 -197q-22 -83 -31 -155l-2 -9v-8l-2 -8v-20l2 -13v-34q0 -19 -14 -33q-14 -20 -39 -31l-52 -8h-10l-8 2q-34 0 -70 22
q-31 21 -45 56l-6 20l-2 15l4 20l8 16l5 4l10 19l6 18l45 234l-266 762l-8 22l-13 21l-6 12l-6 14l-8 21l-4 26l2 11l2 14q6 36 43 51q37 17 69 17h15l57 -7q39 -10 45 -16q38 -23 45 -59l10 -74v-4v-8l3 -23v-12q0 -11 4 -23l4 -22l123 -381l188 475l4 14l4 15v12l4 12
l11 49q6 27 32 41q3 3 19 6l24 5q13 0 23 -5l24 -4q44 -14 76 -51q34 -30 43 -76l2 -4v-8z" />
    <glyph glyph-name="z" unicode="z" horiz-adv-x="885" 
d="M850 823l-35 -35l-8 -6l-6 -6l-23 -18l-18 -23l-406 -547l277 43q16 0 26 5l25 12l6 2l6 2l23 10l26 4h9l12 -2q36 -8 65 -45q27 -32 37 -82l2 -12q0 -31 -8 -47q-6 -24 -20 -35q-8 -14 -29 -20l-33 -7l-22 2q-13 0 -23 5l-24 2l-21 2h-10l-6 -2l-348 -54q-18 0 -31 -8
l-27 -14l-4 -4l-33 -13l-36 -6q-61 0 -117 44.5t-56 105.5v10l3 12q3 26 6 29q3 11 12 20l29 29l8 6l8 8l12 11l13 14l413 573l-200 -24l-21 -8l-18 -4l-6 -4l-9 -3l-12 -2l-14 -2l-17 4l-16 5q-51 22 -78 57q-29 39 -29 72l2 20l9 21l10 20l14 23q21 20 31 22l35 4l24 -2
l23 -2l27 -2l24 -2h8h11l286 35q15 0 27 4l29 10l10 4l12 4l23 4l22 2l12 -2h13l6 -2q32 -13 59 -47q25 -28 43 -69l4 -21l2 -18v-8q-3 -33 -20 -54z" />
    <glyph glyph-name="braceleft" unicode="{" horiz-adv-x="682" 
d="M639 -260q0 -35 -8 -59q-9 -29 -27 -29q-32 -4 -79 -10t-50 -7q-12 0 -53 9q-36 8 -49 8q-56 0 -92 65q-39 62 -39 123q0 341 -33 473q-24 101 -84 123q-18 6 -35 17q-10 10 -10 32v86q0 25 7.5 32.5t37.5 17.5q58 18 92 90q33 67 33 209l-8 297q0 57 39 122q37 66 92 66
q13 0 49 8t53 8q24 0 62 -4q25 -5 67 -12q18 0 27 -27q8 -24 8 -61q0 -21 -12 -27q-3 -7 -82 -10q-78 -3 -90 -18q-23 -35 -23 -121v-82q0 -60 2 -90q0 -189 -31 -283q-39 -125 -155 -154v-8q113 -27 155 -153q31 -92 31 -283v-88q-2 -27 -2 -78q0 -38 4 -76q3 -31 19 -47
q13 -19 90 -22q79 -3 82 -10q12 -7 12 -27z" />
    <glyph glyph-name="braceright" unicode="}" horiz-adv-x="682" 
d="M610 485q0 -24 -8.5 -32.5t-36.5 -16.5q-59 -21 -84 -121q-16 -66 -24 -188.5t-8 -286.5q0 -52 -35 -116q-40 -72 -97 -72q-13 0 -49 -8q-39 -9 -53 -9q-37 0 -47 3q-25 6 -82 14q-15 0 -25 26q-10 32 -10 62q0 19 12 27q5 7 82 10t91 18q22 36 22 121v78q-2 22 -2 67v27
q0 189 31 283q39 125 155 153v8q-113 29 -155 154q-31 92 -31 283v88q0 53 2 78q0 69 -2 84q-3 22 -18 41q-19 17 -93 20q-77 3 -82 10q-12 6 -12 27q0 37 8 61q10 27 27 27q46 6 71.5 9t57.5 7q18 0 53 -8q36 -8 49 -8q57 0 97 -70q35 -65 35 -118l-9 -297q0 -132 35 -207
q35 -74 90 -92q21 -8 35 -17q10 -10 10 -33v-86z" />
    <glyph glyph-name="asciitilde" unicode="~" horiz-adv-x="1229" 
d="M1087 477q-66 -90 -102 -121q-67 -55 -154 -55q-64 0 -133 29q-36 18 -75 41q-69 36 -107 47q-68 22 -129 22t-106 -47q-40 -39 -66 -100l-74 139q41 81 92 121q68 55 164 55q52 0 111 -18q20 -6 117 -47q45 -21 114 -49q57 -25 95 -25q52 0 102 47q33 31 78 100z" />
    <glyph glyph-name="nonbreakingspace" unicode="&#xa0;" horiz-adv-x="1536" 
 />
    <glyph glyph-name="sterling" unicode="&#xa3;" horiz-adv-x="1024" 
d="M979 72q0 -30 -88 -45q-82 -15 -141 -15q-82 0 -250 -6q-169 -6 -252 -6q-32 0 -58 4q-14 2 -38 10q-18 3 -43 43q-31 46 -31 90q0 60 45 86q19 12 110 37q52 16 70 62q19 47 19 106v58q-5 28 -13 28q-121 0 -157 4q-26 3 -39 25q-15 20 -35 57q-15 25 -15 29q0 28 50 43
q42 14 86 14q7 0 53 4q26 3 43 11q0 20 2 46.5t2 166.5q0 111 117 243q113 131 200 131q28 0 70 -22q44 -23 53 -23q76 0 113 -100q27 -73 27 -166q0 -58 -13 -86q-18 -37 -73 -37q-59 0 -97 56q-43 66 -43 141q0 41 -12 41q-28 0 -78 -105q-55 -117 -55 -221q0 -25 4 -45
q3 -14 18 -14l54 4q2 0 92 -4l80 -4v0q47 0 74.5 -41t27.5 -109q0 -25 -45 -35q-46 -12 -80 -12h-108q-56 0 -80 -4q-18 -3 -21 -12q-2 -4 -2 -37q0 -98 -26 -154q-38 -47 -60 -76l6 -8q61 6 78 8q52 5 80 5q39 0 176 -5q137 -3 137 -4h-6q35 0 58 -65q14 -43 14 -92z" />
    <glyph glyph-name="brokenbar" unicode="&#xa6;" horiz-adv-x="610" 
d="M457 752l-4 32l-9 37l-10 37q-4 20 -4 41v324l4 30l8 29l2 8l5 6l4 19l2 20l-2 13v14q-13 33 -47 45q-39 20 -80 20l-15 3h-10l-57 -7q-28 -6 -35.5 -16.5t-18.5 -60.5q-8 -44 -8 -134v-43v13q0 -35 2 -54l6 -135l7 -127l-2 -22v-19l-2 -18v-14v-13l2 -12l4 -16l10 -11
q14 -19 55 -43q36 -20 74 -20l8 -2h10h15l30 6l29 14l21 25zM457 -190l-4 32l-9 37l-10 37q-4 20 -4 41v324l4 30l8 29l2 8l5 6l4 19l2 20l-2 13v14q-13 33 -47 45q-39 20 -80 20l-15 2h-10l-57 -6q-28 -6 -35.5 -16.5t-18.5 -61.5q-8 -43 -8 -133v-43v13q0 -35 2 -54
l6 -135l7 -127l-2 -22v-19l-2 -18v-15v-12l2 -12l4 -16l10 -11q14 -19 55 -43q36 -20 74 -20l8 -2h10h15l30 6l29 14l21 25z" />
    <glyph glyph-name="logicalnot" unicode="&#xac;" horiz-adv-x="1229" 
d="M1032 182q0 -32 -24 -53q-31 -23 -60 -23q-31 0 -53 25q-23 26 -23 57v318q0 55 -51 55h-575q-27 6 -43 12q-43 22 -43 72q0 49 43 68q3 1 10.5 2.5t14 2.5t18.5 3h715q30 0 51 -21q20 -20 20 -57v-461z" />
    <glyph glyph-name="Aacute" unicode="&#xc1;" horiz-adv-x="1145" 
d="M1102 463q0 -43 -10 -78q-11 -32 -39 -35q-9 -1 -19 -3t-16 -3l-12 -2q-26 -4 -33 -4q-23 0 -29 2q29 -112 98 -205q10 -10 17 -14q13 -10 33 -74q2 -6 2 -16q0 -24 -21 -45q-29 -28 -57 -31q-38 -4 -49 -4q-48 0 -86 16q-37 15 -54 56q-6 18 -6 40q0 29 -2 31
q-13 28 -26.5 54.5t-24.5 50.5q-24 45 -49 112l-373 -63q-13 -30 -27 -78q-15 -46 -18 -78v-43q0 -12 -4 -24q-35 -68 -117 -68q-21 0 -51 10q-44 21 -63 51q-19 25 -19 54q0 10 2 16q9 49 25 62q10 8 18 16q32 138 55.5 241.5t38.5 172.5q53 222 103 385q18 59 40.5 121
t48.5 126t48 113q2 4 2 16v15q-2 14 -2 26q0 27 2 33q3 16 21 45q15 29 40 37t78 8h23q70 0 115 -26q45 -28 45 -93q0 -24 -15 -59q-14 -28 -14 -49v-4q15 -175 43 -320q26 -143 104 -401q19 0 43 8q64 21 78 21h12q12 -3 12 -4h-1q43 -14 67 -41q23 -32 23 -74zM641 516
q-5 20 -18.5 76t-26.5 110q-34 151 -53 259q-58 -134 -90 -232q-50 -142 -66 -260zM786 1858q-6 -55 -110 -168t-166 -113q-29 0 -43 20q-18 19 -18 48q0 17 18 43q8 10 35 36q23 25 39 52q5 9 45 106q22 60 76 60q33 0 75 -27q43 -28 49 -57z" />
    <glyph glyph-name="Eacute" unicode="&#xc9;" horiz-adv-x="801" 
d="M762 1339q0 -26 -19 -45q-18 -18 -53 -30q-17 -7 -45 -7q-27 0 -45 2.5t-33 2.5q-21 0 -98 -33q-96 -42 -133 -66q0 -110 -2 -180q-1 -24 -1 -62q-1 -38 -1 -51v-28v-58q0 -13 4 -59q19 6 31 8q19 3 22 6q34 37 82 37q42 0 113 -45q73 -46 73 -90q0 -35 -4 -55
q-6 -16 -39 -39q-31 -27 -67 -27q-19 0 -37 2t-51 2q-19 0 -56 -16q-24 -12 -40.5 -21t-26.5 -14q0 -80 2 -121q0 -64 8 -92q60 15 92 27q31 8 39 16q12 14 19 22t8 9q3 3 18 6q20 4 35 4q31 0 66 -18q35 -26 57 -52q41 -52 41 -98q0 -35 -14 -55q-16 -25 -45 -31
q-25 -8 -68 -8q-53 0 -55 -2t-97 -45q-85 -42 -96 -49l-8 -8t-10 -9q-31 -30 -56 -35h-8q-26 0 -82 35q-75 52 -114 144q-2 2 -2 8q0 9 12 29q8 11 8 24q0 158 -2 205q-8 253 -8 328q0 96 4 374q2 140 2 246q0 6 -4 14q-10 22 -10 25q0 21 16 37q3 2 12.5 7.5t26.5 14.5
q34 17 72 17q17 0 45 -10q20 -13 49 -25q73 24 102 31q52 15 119 41q22 7 55 22q32 10 53 10q32 0 56 -16q9 -5 41 -41q47 -55 47 -115zM575 1839q-6 -55 -110 -168q-103 -112 -166 -112q-29 0 -43 20q-18 18 -18 47q0 19 18 43q10 14 35 37q20 20 39 51q8 15 45 107
q21 59 76 59q35 0 75 -27q43 -26 49 -57z" />
    <glyph glyph-name="Iacute" unicode="&#xcd;" horiz-adv-x="444" 
d="M397 27l-2 -15q-10 -23 -37 -32q-29 -13 -61 -13h-12l-11 2l-12 2h-12q-72 9 -119 31q-42 20 -57 59l-4 13l-2 14q0 20 12 41q15 23 31 35l-7 225l-8 285v20v21l-14 399l-4 178q0 19 -4 31l-11 29l-4 6l-4 10l-4 12l-2 15q0 12 10 32q2 8 33 39q11 13 33 19q24 4 49 4
l23 -2l26 -2q50 -10 92 -35q50 -29 64 -57l2 -9l2 -6l2 -6q0 -27 -8 -43l-19 -37l-6 -12l-6 -14l19 -1114l6 -33l10 -25l2 -4l10 -27l4 -26v-10zM414 1858q-6 -55 -111 -168q-104 -113 -166 -113q-29 0 -43 20q-18 19 -18 48q0 17 18 43q3 4 35 36q27 29 39 52q12 21 45 106
q22 60 76 60q32 0 76 -27q43 -29 49 -57z" />
    <glyph glyph-name="Oacute" unicode="&#xd3;" horiz-adv-x="991" 
d="M946 774q0 -140 -26 -278t-76 -263q-114 -278 -266 -278q-87 0 -134 12q-43 11 -116 53q-108 64 -187.5 290.5t-79.5 463.5q0 233 74 469q74 232 168 256q28 4 31 4q15 0 55 -10q42 -10 62 -10q19 0 61 10t57 10q17 0 33 -4q172 -46 264 -270q40 -95 60 -206.5t20 -248.5
zM696 774q0 214 -43 356q-56 189 -161 189q-87 0 -140 -189q-45 -159 -45 -356q0 -194 62 -401q61 -205 131 -205q61 0 129 209q67 207 67 397zM678 1882q-6 -54 -111 -168q-102 -112 -166 -112q-27 0 -43 20q-18 18 -18 47q0 19 18 43q14 16 35 37q22 21 39 51
q14 27 45 107q23 59 76 59q35 0 76 -27q43 -28 49 -57z" />
    <glyph glyph-name="Uacute" unicode="&#xda;" horiz-adv-x="989" 
d="M952 1356l-2 -17l-2 -12l-8 -12l-4 -15l-4 -6l-2 -6v-26v-35v-262q0 -168 -25 -349q-30 -249 -121 -466.5t-282 -217.5q-99 0 -172 48q-72 46 -119 149q-88 208 -123 465l-20 229l-5 207v98q0 39 5 74l2 33l2 20l-13 48l-6 49q0 24 10 49q5 10 7 16q2 3 7 11t13 20
q11 11 35 18l49 9l25 -2l26 -5q53 -10 97 -38q45 -32 51 -89l-6 -38l-13 -27l-4 -8l-10 -23l-4 -18v-10l-2 -13v-24l6 -195q0 -41 4 -111q2 -39 16 -157q5 -42 9.5 -85.5t11.5 -107.5q7 -67 27 -170q27 -159 69 -159q55 0 94 165q12 45 35 164q12 79 27 193l20 248l6 194
l-2 41l-2 27v6v4l-2 10l-2 17l-12 18l-12 18l-21 35q-8 15 -8 39l4 33l21 37q14 26 61 41q43 14 80 14h8h10q19 0 43 -4q9 -3 52 -22q34 -17 55 -58l16 -35zM653 1868q-6 -53 -110 -168q-104 -113 -166 -113q-29 0 -43 21q-19 19 -19 47q0 16 19 43q6 8 35 37q22 22 39 51
q5 9 45 106q22 60 75 60q35 0 76 -27q42 -26 49 -57z" />
    <glyph glyph-name="aacute" unicode="&#xe1;" horiz-adv-x="983" 
d="M944 88q0 -48 -41 -80q-4 -4 -72 -26q-14 0 -24 2t-15 2.5t-10 1.5q-10 2 -22 6q-23 9 -41 22q-27 21 -33 33q-11 19 -20 72l-9 37l-4 47l-10 -25l-14 -24q-28 -41 -51 -68q-28 -30 -72 -63q-81 -62 -166 -88q-11 -3 -39 -9q-31 -6 -53 -8q-63 0 -121 43q-61 42 -94 150
q-4 16 -10 55q-5 20 -5 45q0 137 101 219q92 75 219 137l100 45l90 43l39 19q27 17 33 26q0 3 2 5q-2 2 -2 6q0 16 8 49q0 26 -8 39q-3 17 -25 26q-2 0 -22 7q-28 4 -45 4q-53 0 -105 -25q-39 -18 -100 -59q-22 -17 -24 -21q-3 2 -3 4q-8 -5 -32 -43q-22 -21 -33 -28
l-51 -15q-45 0 -78 39q-35 41 -35 84q0 15 4 27l12 26q7 15 37 39q7 4 18.5 12t20.5 13q24 15 41 22q68 36 197 76q84 22 123 27q72 10 135 10q136 0 168 -121q17 -58 33 -147q12 -76 12 -160l4 -49l12 -158q0 -41 6 -76q3 -32 19 -88q3 -17 14 -37q2 -5 15 -24l18 -31
q12 -15 12 -33q0 -2 -4 -14zM623 528l-17 -8q-11 -4 -18 -6.5t-23 -9.5q-14 -7 -41 -25l-86 -45q-8 -4 -41 -26q-31 -25 -39 -31q-5 -3 -18 -17q-12 -12 -33 -26q-31 -26 -49 -49q-22 -30 -22 -60q0 -26 22 -61q20 -27 51 -27q26 0 62 17q32 15 67 51q32 31 68 76q2 2 39 59
q49 78 78 188zM621 1413q-8 -56 -111 -168t-166 -112q-29 0 -43 20q-18 18 -18 47q0 19 18 43q10 14 35 37q24 24 39 51q8 15 45 107q21 59 76 59q35 0 75 -27q42 -26 50 -57z" />
    <glyph glyph-name="eacute" unicode="&#xe9;" horiz-adv-x="764" 
d="M719 199q0 -37 -25 -68l-30 -45l-25 -25l-43 -36q-23 -20 -102 -50q-22 -6 -39 -8q-32 -6 -33 -6l-43 -6h-37q-140 0 -213 156q-76 155 -76 342q0 39 2 45q0 182 88 354q86 160 234 186q12 4 29 4h26q93 0 164 -65q35 -32 57 -84q21 -46 21 -121q0 -45 -10 -100
q-15 -55 -46 -105q-44 -81 -135 -166q-89 -83 -209 -122v-19q3 -20 17 -45q12 -24 18 -39q22 -39 68 -39h18q26 3 49 19l45 30l19 21q12 8 20 26l11 33q0 14 12 35l27 18q17 7 20 7q13 0 41 -4q22 -8 53 -46q13 -16 21 -38q6 -25 6 -39zM494 768l-7 37q-2 10 -22 26
q-3 5 -6 5q-12 4 -29 4q-37 0 -70 -31q-8 -12 -10 -14q-36 -48 -41 -58q-18 -32 -26 -73q-14 -49 -17 -82q-4 -54 -4 -64q-2 -16 -2 -35v-24q35 8 72 35q18 15 41 36q48 53 86 119l26 62zM584 1403q-6 -54 -111 -168q-104 -113 -166 -113q-29 0 -43 21q-18 18 -18 47
q0 19 18 43q3 4 13 14t22 23q24 24 39 51q5 9 45 106q22 60 76 60q35 0 76 -27q42 -27 49 -57z" />
    <glyph glyph-name="iacute" unicode="&#xed;" horiz-adv-x="420" 
d="M358 920l-2 -7l-10 -32l-14 -29l-21 -45q-7 -18 -10 -45v-541v-20l4 -17l6 -34l11 -33l14 -54l6 -43q0 -16 -6 -28q-6 -14 -19 -23q-10 -8 -26 -14q-2 -1 -9.5 -3t-19.5 -7l-51 -8q-23 0 -53 10q-28 9 -43 37q-19 31 -27 82q-10 60 -10 137v354v109l2 106l-2 35l-2 33
q0 16 -4 32l-2 29l2 25l6 24l14 27l23 27l26 12q20 8 43 8l21 -4l20 -2l74 -19q35 -12 47 -30l6 -11l4 -10l2 -10v-10v-8zM471 1399q-6 -54 -111 -168q-103 -113 -165 -113q-29 0 -43 21q-19 18 -19 47q0 18 19 43q3 4 34 37q24 22 39 51q10 16 45 106q23 60 76 60
q35 0 76 -27q42 -26 49 -57z" />
    <glyph glyph-name="oacute" unicode="&#xf3;" horiz-adv-x="764" 
d="M731 500l-2 -25q0 -96 -22 -182q-26 -88 -72 -178q-89 -162 -258 -162q-181 0 -264 164q-34 68 -60 174q-20 84 -20 190v6q0 192 62.5 348.5t170.5 190.5l53 12l58 4l31 -2q15 0 41 -4q3 -1 36 -10q23 -9 41 -22q19 -8 41 -21q16 -12 41 -35q58 -58 90 -172
q33 -112 33 -252v-24zM510 494v59q0 138 -16 207q-25 100 -97 100q-68 0 -104 -110q-39 -110 -39 -240q0 -165 18 -248q28 -131 109 -131q44 0 88 123q41 125 41 240zM565 1419q-6 -53 -110 -168q-105 -112 -166 -112q-29 0 -43 20q-19 18 -19 47q0 20 19 43q10 14 35 37
q22 22 38 51q7 12 46 107q21 59 75 59q34 0 76 -26q43 -28 49 -58z" />
    <glyph glyph-name="uacute" unicode="&#xfa;" horiz-adv-x="760" 
d="M743 883q0 -11 -4 -23l-8 -18l-4 -6l-2 -11l-12 -22l-4 -27v-26v-25l-2 -139q0 -39 -2 -72q-3 -35 -3 -78q0 -95 -20 -174q-23 -95 -59 -176q-61 -156 -236 -156q-182 0 -250 162q-33 91 -51 178q-20 86 -20 183l-3 34v37l7 158l14 137v19l4 16l-8 39l-4 37l6 45
q6 12 12 22q7 13 17 21q15 18 39 24l49 9h12q38 0 76 -23q36 -18 45 -43l4 -16v-13l-4 -26q-3 -16 -6 -19l-4 -14l-5 -10l-14 -39l-4 -39v-10l-14 -119l-4 -143v-13v-8q0 -141 22 -254q21 -108 70 -108q53 0 78 118q9 41 16 101q2 13 16 166l4 141v123v14v14l-2 19l-2 16
l-2 8v11q0 14 -4 26l-2 23q0 24 8 37q6 14 25 24l22 9h31h27q7 0 35 -5q5 -2 11.5 -4t24.5 -10q13 -6 37 -22q39 -22 45 -66l2 -6v-8zM610 1405q-6 -53 -110 -168q-104 -113 -166 -113q-29 0 -43 21q-19 19 -19 47q0 18 19 43q6 8 35 37q20 20 39 51q7 12 45 107
q22 59 75 59q35 0 76 -27q42 -26 49 -57z" />
    </font>
</defs>
</svg>
